<?xml version="1.0" encoding="UTF-8"?>
<svg xmlns="http://www.w3.org/2000/svg" xmlns:xlink="http://www.w3.org/1999/xlink" width="325.04pt" height="85.04pt" viewBox="0 0 325.04 85.04" version="1.1">
<defs>
<clipPath id="clip1">
  <path d="M 305 40 L 325.039063 40 L 325.039063 66 L 305 66 Z M 305 40 "/>
</clipPath>
<clipPath id="clip2">
  <path d="M 0 0 L 86 0 L 86 85.039063 L 0 85.039063 Z M 0 0 "/>
</clipPath>
</defs>
<g id="surface1">
<path style=" stroke:none;fill-rule:evenodd;fill:rgb(7.499695%,28.199768%,51.799011%);fill-opacity:1;" d="M 269.300781 21.664063 C 268.652344 21.664063 267.988281 20.871094 267.816406 20.15625 L 267.726563 19.335938 L 267.570313 19.464844 C 267.199219 19.828125 266.625 20.019531 266.03125 20.019531 C 264.949219 20.019531 264.085938 19.367188 264.085938 18.535156 C 264.085938 17.707031 264.949219 17.035156 266.03125 17.035156 C 266.515625 17.035156 266.988281 17.152344 267.3125 17.398438 L 267.449219 17.234375 L 267.085938 16.886719 C 265.605469 15.800781 263.988281 15.554688 262.8125 16.210938 C 262.074219 16.640625 261.625 17.378906 261.625 18.140625 C 261.625 18.191406 261.644531 18.257813 261.644531 18.308594 C 261.726563 19.054688 262.238281 19.644531 263.042969 20.003906 L 261.0625 20.003906 L 259.699219 21.84375 L 269.300781 21.84375 "/>
<path style=" stroke:none;fill-rule:evenodd;fill:rgb(7.499695%,28.199768%,51.799011%);fill-opacity:1;" d="M 232.847656 6.953125 L 232.675781 6.742188 L 232.675781 34.070313 L 236.480469 34.070313 L 236.480469 11.320313 C 236.480469 10.992188 236.585938 10.726563 236.78125 10.527344 C 237.230469 10.101563 238.125 10.101563 238.144531 10.101563 L 238.144531 9.890625 C 236.679688 9.890625 234.484375 8.988281 232.847656 6.953125 "/>
<path style=" stroke:none;fill-rule:evenodd;fill:rgb(7.499695%,28.199768%,51.799011%);fill-opacity:1;" d="M 160.496094 11.320313 C 160.496094 10.992188 160.617188 10.726563 160.804688 10.53125 C 161.292969 10.101563 162.164063 10.101563 162.164063 10.101563 L 162.164063 9.890625 C 160.710938 9.890625 158.511719 8.988281 156.875 6.953125 L 156.703125 6.742188 L 156.703125 7.015625 L 156.664063 34.070313 L 160.496094 34.070313 "/>
<path style=" stroke:none;fill-rule:evenodd;fill:rgb(7.499695%,28.199768%,51.799011%);fill-opacity:1;" d="M 215.375 10.015625 L 215.375 10.101563 C 215.382813 10.101563 216.25 10.101563 216.742188 10.53125 C 216.96875 10.726563 217.046875 10.992188 217.046875 11.320313 L 217.007813 22.78125 L 219.023438 24.457031 L 219.074219 24.425781 L 221.609375 22.308594 C 221.609375 22.308594 220.910156 21.6875 220.871094 21.644531 L 220.871094 6.742188 L 220.691406 6.953125 C 219.023438 8.988281 216.835938 9.890625 215.375 9.890625 "/>
<path style=" stroke:none;fill-rule:evenodd;fill:rgb(7.499695%,28.199768%,51.799011%);fill-opacity:1;" d="M 229.351563 31.300781 L 228.972656 30.242188 L 228.695313 29.410156 C 228.425781 28.515625 228.207031 27.851563 226.695313 26.535156 C 226.25 26.144531 226.222656 26.152344 226.171875 26.164063 L 226.171875 26.171875 C 226.171875 26.25 223.738281 28.265625 223.738281 28.265625 L 223.671875 28.347656 L 223.785156 28.421875 L 224.066406 28.660156 L 224.164063 28.761719 C 224.785156 29.320313 224.875 29.722656 224.890625 29.914063 L 220.308594 29.914063 C 220.308594 29.722656 220.398438 29.320313 221.015625 28.761719 L 228.152344 22.777344 L 228.164063 11.320313 C 228.164063 10.988281 228.253906 10.726563 228.453125 10.53125 C 228.933594 10.101563 229.820313 10.101563 229.820313 10.101563 L 229.839844 10.015625 L 229.839844 9.890625 C 228.386719 9.890625 226.171875 8.988281 224.511719 6.953125 L 224.371094 6.742188 L 224.371094 7.015625 C 224.371094 7.015625 224.332031 21.550781 224.332031 21.644531 C 224.265625 21.6875 218.488281 26.535156 218.488281 26.535156 C 216.976563 27.851563 216.785156 28.496094 216.503906 29.390625 L 216.230469 30.242188 L 215.835938 31.300781 C 215.480469 32.40625 215.242188 33.105469 214.117188 33.894531 L 213.847656 34.070313 L 231.34375 34.070313 L 231.09375 33.894531 C 229.953125 33.105469 229.71875 32.433594 229.351563 31.300781 "/>
<path style=" stroke:none;fill-rule:evenodd;fill:rgb(7.499695%,28.199768%,51.799011%);fill-opacity:1;" d="M 206.769531 26.035156 C 206.769531 26.308594 206.738281 29.722656 206.738281 29.914063 L 203.226563 29.914063 C 203.226563 28.824219 203.714844 27.28125 206.769531 26.035156 M 208.871094 21.066406 L 208.519531 21.152344 C 206.214844 21.726563 199.171875 23.492188 199.117188 29.914063 L 176.507813 29.914063 L 176.507813 11.320313 C 176.507813 10.992188 176.601563 10.726563 176.796875 10.53125 C 177.265625 10.101563 178.160156 10.101563 178.164063 10.101563 L 178.164063 9.890625 C 176.710938 9.890625 174.511719 8.980469 172.871094 6.953125 L 172.683594 6.742188 L 172.683594 7.015625 L 172.65625 34.070313 L 210.890625 34.054688 L 210.890625 19.207031 L 210.71875 19.1875 C 210.71875 19.207031 210.359375 20.65625 208.871094 21.066406 "/>
<path style=" stroke:none;fill-rule:evenodd;fill:rgb(7.499695%,28.199768%,51.799011%);fill-opacity:1;" d="M 166.824219 22.089844 L 166.765625 22.25 C 166.21875 23.984375 164.574219 25.957031 162.953125 26.789063 L 163.019531 26.976563 C 163.679688 26.976563 164.273438 27.230469 164.753906 27.761719 C 165.945313 29.074219 166.128906 31.507813 166.039063 32.476563 C 165.683594 35.933594 163.773438 38.191406 161.191406 38.191406 C 159.964844 38.269531 158.148438 37.679688 157.574219 37.371094 C 157.441406 37.273438 157.3125 37.25 157.210938 37.285156 C 157.148438 37.363281 157.105469 37.40625 157.132813 37.472656 C 157.132813 37.535156 157.148438 37.664063 157.398438 37.800781 L 157.695313 38.019531 C 158.359375 38.554688 159.929688 39.765625 162.234375 39.800781 C 166.464844 39.800781 169.933594 35.390625 169.933594 29.988281 C 169.933594 26.921875 168.839844 24.074219 166.914063 22.199219 "/>
<path style=" stroke:none;fill-rule:evenodd;fill:rgb(7.499695%,28.199768%,51.799011%);fill-opacity:1;" d="M 318.320313 36.039063 C 316.953125 36.039063 315.933594 37.054688 315.933594 38.464844 C 315.933594 39.8125 316.980469 40.761719 318.3125 40.761719 C 319.5625 40.761719 320.664063 39.839844 320.664063 38.367188 C 320.664063 36.984375 319.5625 36.039063 318.320313 36.039063 "/>
<path style=" stroke:none;fill-rule:evenodd;fill:rgb(7.499695%,28.199768%,51.799011%);fill-opacity:1;" d="M 300.820313 16.707031 C 302.089844 16.707031 303.191406 15.792969 303.191406 14.300781 C 303.191406 12.910156 302.089844 11.953125 300.859375 11.953125 C 299.453125 11.953125 298.4375 13 298.4375 14.394531 C 298.4375 15.746094 299.527344 16.707031 300.820313 16.707031 "/>
<path style=" stroke:none;fill-rule:evenodd;fill:rgb(7.499695%,28.199768%,51.799011%);fill-opacity:1;" d="M 125.988281 22.199219 C 127.304688 22.199219 128.363281 21.261719 128.363281 19.789063 C 128.363281 18.40625 127.304688 17.429688 126.03125 17.429688 C 124.644531 17.429688 123.625 18.488281 123.625 19.890625 C 123.625 21.222656 124.714844 22.199219 125.988281 22.199219 "/>
<path style=" stroke:none;fill-rule:evenodd;fill:rgb(7.499695%,28.199768%,51.799011%);fill-opacity:1;" d="M 131.28125 22.199219 C 132.570313 22.199219 133.65625 21.261719 133.65625 19.789063 C 133.65625 18.40625 132.570313 17.429688 131.3125 17.429688 C 129.933594 17.429688 128.914063 18.488281 128.914063 19.890625 C 128.914063 21.222656 129.960938 22.199219 131.28125 22.199219 "/>
<path style=" stroke:none;fill-rule:evenodd;fill:rgb(7.499695%,28.199768%,51.799011%);fill-opacity:1;" d="M 111.855469 53.90625 L 116.035156 53.90625 C 118.195313 53.90625 119.058594 53.9375 119.496094 55.980469 L 120.035156 55.980469 L 120.035156 49.167969 L 119.496094 49.167969 C 119.242188 50.78125 118.546875 51.296875 116.429688 51.296875 L 111.855469 51.296875 L 111.855469 43.722656 L 117.730469 43.722656 C 119.183594 43.722656 119.902344 43.820313 120.34375 45.753906 L 120.921875 45.753906 L 120.921875 41.101563 L 105.027344 41.101563 L 105.027344 41.625 C 106.898438 41.75 107.101563 42.761719 107.101563 44.414063 L 107.101563 61.308594 C 107.101563 63.371094 107.050781 64.535156 105.027344 64.886719 L 105.027344 65.402344 L 122.980469 65.402344 L 122.980469 60.636719 L 122.480469 60.636719 C 121.882813 62.683594 121.289063 62.800781 119.292969 62.800781 L 115.097656 62.800781 C 112.328125 62.800781 111.855469 62.453125 111.855469 59.59375 "/>
<path style=" stroke:none;fill-rule:evenodd;fill:rgb(7.499695%,28.199768%,51.799011%);fill-opacity:1;" d="M 124.628906 52.152344 L 124.773438 52.601563 C 126.792969 52.601563 126.8125 53.898438 126.8125 55.941406 L 126.8125 61.6875 C 126.8125 63.878906 126.429688 64.445313 124.773438 64.941406 L 124.773438 65.402344 L 133.027344 65.402344 L 133.027344 64.941406 C 131.28125 64.34375 131.15625 63.902344 131.15625 61.6875 L 131.15625 56.390625 C 131.15625 55.21875 131.25 54.171875 132.097656 53.285156 C 132.710938 52.675781 133.65625 52.238281 134.710938 52.238281 C 135.96875 52.238281 136.746094 52.875 137.160156 53.402344 C 137.855469 54.296875 137.886719 55.308594 137.886719 56.390625 L 137.886719 61.6875 C 137.886719 63.625 137.855469 64.445313 136.113281 64.941406 L 136.113281 65.402344 L 144.128906 65.402344 L 144.128906 64.941406 C 142.371094 64.480469 142.183594 63.789063 142.183594 61.6875 L 142.183594 56.390625 C 142.183594 55.394531 142.183594 54.316406 143.035156 53.402344 C 143.589844 52.730469 144.546875 52.238281 145.703125 52.238281 C 147.839844 52.238281 148.933594 53.507813 148.933594 55.980469 L 148.933594 61.6875 C 148.933594 63.542969 148.863281 64.507813 147.089844 64.941406 L 147.089844 65.402344 L 155.332031 65.402344 L 155.332031 64.941406 C 153.445313 64.480469 153.234375 64.039063 153.234375 61.6875 L 153.234375 55.101563 C 153.234375 53.707031 153.207031 52.320313 152.074219 51.023438 C 151.136719 49.921875 149.527344 49.210938 147.695313 49.210938 C 144.328125 49.210938 142.453125 51.503906 141.84375 52.226563 C 141.410156 51.433594 140.289063 49.210938 136.929688 49.210938 C 135.355469 49.210938 133.1875 49.699219 131.15625 52.085938 L 131.15625 48.886719 "/>
<path style=" stroke:none;fill-rule:evenodd;fill:rgb(7.499695%,28.199768%,51.799011%);fill-opacity:1;" d="M 160.46875 41.949219 C 159.085938 41.949219 158.054688 42.992188 158.054688 44.40625 C 158.054688 45.734375 159.144531 46.703125 160.425781 46.703125 C 161.699219 46.703125 162.816406 45.753906 162.816406 44.296875 C 162.816406 42.90625 161.699219 41.949219 160.46875 41.949219 M 155.992188 52.109375 L 156.210938 52.515625 C 158.257813 52.394531 158.339844 53.3125 158.339844 55.101563 L 158.339844 61.503906 C 158.339844 63.484375 158.339844 64.316406 156.273438 64.941406 L 156.273438 65.402344 L 164.742188 65.402344 L 164.742188 64.941406 C 162.867188 64.480469 162.605469 63.988281 162.605469 61.730469 L 162.605469 48.890625 "/>
<path style=" stroke:none;fill-rule:evenodd;fill:rgb(7.499695%,28.199768%,51.799011%);fill-opacity:1;" d="M 167.640625 61.285156 C 167.640625 61.933594 167.632813 62.863281 167.378906 63.484375 C 166.921875 64.480469 166.167969 64.753906 165.621094 64.941406 L 165.621094 65.402344 L 174.035156 65.402344 L 174.035156 64.941406 C 172.136719 64.242188 171.917969 63.835938 171.917969 61.285156 L 171.917969 56.578125 C 171.917969 55.75 171.917969 54.738281 172.621094 53.773438 C 173.230469 52.917969 174.171875 52.394531 175.308594 52.394531 C 176.820313 52.394531 177.449219 53.351563 177.867188 54.078125 L 178.257813 54.078125 L 178.980469 49.492188 C 178.601563 49.3125 177.945313 49.089844 176.992188 49.089844 C 174.390625 49.089844 172.996094 50.644531 171.917969 51.847656 L 171.917969 48.890625 L 165.292969 52.371094 L 165.460938 52.730469 C 167.632813 52.730469 167.640625 54.433594 167.640625 56.183594 "/>
<path style=" stroke:none;fill-rule:evenodd;fill:rgb(7.499695%,28.199768%,51.799011%);fill-opacity:1;" d="M 188.597656 61.207031 C 187.066406 63.023438 185.519531 63.136719 185.15625 63.136719 C 183.855469 63.136719 182.945313 62.203125 182.945313 61.054688 C 182.945313 59.09375 185.113281 58.355469 186.003906 58.035156 C 187.234375 57.625 187.542969 57.503906 188.597656 56.796875 Z M 194.550781 62.757813 C 192.773438 62.015625 192.722656 61.207031 192.722656 59.261719 L 192.722656 55.527344 C 192.722656 53.707031 192.722656 52.394531 191.722656 51.117188 C 190.261719 49.25 187.828125 49.164063 186.585938 49.164063 C 185.175781 49.164063 183.117188 49.375 180.675781 50.265625 L 180.132813 53.90625 L 180.675781 53.90625 C 181.152344 53.3125 181.671875 52.726563 182.5625 52.152344 C 183.53125 51.582031 184.691406 51.257813 185.722656 51.257813 C 186.75 51.257813 187.828125 51.605469 188.261719 52.511719 C 188.441406 52.875 188.503906 53.285156 188.503906 53.636719 C 188.503906 55.304688 186.847656 55.839844 185.175781 56.289063 L 184.011719 56.578125 C 182.371094 56.984375 178.667969 57.945313 178.667969 61.503906 C 178.667969 63.355469 179.777344 65.972656 183.636719 65.972656 C 186.355469 65.972656 187.777344 64.535156 188.917969 63.410156 C 189.28125 64.613281 189.726563 65.285156 190.941406 66.082031 L 194.796875 63.175781 "/>
<path style=" stroke:none;fill-rule:evenodd;fill:rgb(7.499695%,28.199768%,51.799011%);fill-opacity:1;" d="M 199.851563 45.367188 C 199.601563 46.339844 199.351563 47.285156 198.613281 48.433594 C 197.542969 50.128906 196.378906 50.628906 195.402344 51.074219 L 195.402344 51.984375 L 197.578125 51.984375 L 197.578125 60.582031 C 197.578125 61.796875 197.660156 63.199219 198.363281 64.21875 C 199.222656 65.367188 200.816406 65.796875 201.910156 65.796875 C 202.996094 65.796875 204.140625 65.460938 205.285156 64.617188 C 205.980469 64.070313 206.304688 63.625 207.050781 62.683594 L 206.695313 62.304688 C 206.214844 62.652344 205.457031 63.199219 204.3125 63.199219 C 203.652344 63.199219 202.628906 63.0625 202.128906 61.859375 C 201.910156 61.351563 201.828125 60.761719 201.828125 59.402344 L 201.828125 51.984375 L 206.058594 51.984375 L 206.058594 49.789063 L 201.828125 49.789063 L 201.828125 45.367188 "/>
<path style=" stroke:none;fill-rule:evenodd;fill:rgb(7.499695%,28.199768%,51.799011%);fill-opacity:1;" d="M 211.542969 55.144531 C 211.746094 54.375 212.003906 53.464844 212.675781 52.632813 C 213.789063 51.257813 215.203125 51.1875 215.816406 51.1875 C 216.585938 51.1875 217.9375 51.335938 218.878906 52.730469 C 219.417969 53.535156 219.546875 54.292969 219.609375 55.144531 Z M 222.929688 60.28125 C 222.023438 61.113281 220.355469 62.683594 217.089844 62.683594 C 215.375 62.683594 212.882813 62.175781 211.863281 59.40625 C 211.519531 58.449219 211.46875 57.761719 211.46875 57.085938 L 223.847656 57.085938 C 223.734375 55.457031 223.410156 53.859375 222.574219 52.453125 C 220.699219 49.453125 217.566406 49.246094 216.132813 49.246094 C 210.53125 49.246094 207.644531 53.503906 207.644531 57.703125 C 207.644531 61.730469 210.238281 66 215.914063 66 C 220.296875 66 222.023438 63.5 223.457031 60.621094 "/>
<path style=" stroke:none;fill-rule:evenodd;fill:rgb(7.499695%,28.199768%,51.799011%);fill-opacity:1;" d="M 230.34375 58.582031 C 231.527344 59.238281 233.074219 60.011719 233.074219 61.503906 C 233.074219 63.261719 231.453125 63.902344 230.042969 63.902344 C 227.441406 63.902344 226.828125 62.117188 226.519531 61.113281 L 225.988281 61.113281 L 225.988281 65.199219 C 227.316406 65.601563 228.488281 66 230.660156 66 C 233.394531 66 234.925781 65.113281 235.683594 64.445313 C 236.742188 63.5 237.355469 62.117188 237.355469 60.734375 C 237.355469 57.914063 234.96875 56.777344 234.144531 56.390625 L 232.855469 55.765625 C 231.726563 55.261719 230.453125 54.605469 230.453125 53.285156 C 230.453125 52.152344 231.515625 51.257813 233.074219 51.257813 C 235.523438 51.257813 236.011719 52.996094 236.257813 53.859375 L 236.742188 53.859375 L 236.742188 50.003906 C 235.976563 49.746094 234.472656 49.207031 232.292969 49.207031 C 228.359375 49.207031 226.199219 51.378906 226.199219 54.011719 C 226.199219 56.429688 227.933594 57.40625 228.882813 57.914063 "/>
<path style=" stroke:none;fill-rule:evenodd;fill:rgb(7.499695%,28.199768%,51.799011%);fill-opacity:1;" d="M 253.1875 53.90625 L 255.558594 53.90625 C 256.679688 53.90625 258.050781 53.9375 259.320313 54.738281 C 259.957031 55.144531 261.238281 56.257813 261.238281 58.535156 C 261.238281 60.21875 260.476563 61.308594 259.734375 61.898438 C 258.65625 62.683594 256.988281 62.917969 255.613281 62.917969 C 253.226563 62.917969 253.1875 61.503906 253.1875 59.839844 Z M 253.1875 43.644531 L 254.632813 43.644531 C 256.039063 43.644531 257.144531 43.6875 258.109375 44.089844 C 259.476563 44.703125 260.089844 45.929688 260.089844 47.5625 C 260.089844 50.644531 257.351563 51.339844 255.023438 51.339844 L 253.1875 51.339844 Z M 248.492188 61.777344 C 248.492188 63.652344 248.261719 64.535156 246.410156 64.886719 L 246.410156 65.402344 L 256.808594 65.402344 C 258.65625 65.402344 261.050781 65.402344 263.09375 64.160156 C 264.648438 63.199219 266.125 61.351563 266.125 58.671875 C 266.125 54.886719 263.324219 52.929688 260 52.238281 C 262.613281 51.582031 264.914063 50.058594 264.914063 46.839844 C 264.914063 44.78125 264.042969 42.722656 261.644531 41.753906 C 260.289063 41.226563 258.65625 41.101563 256.527344 41.101563 L 246.410156 41.101563 L 246.410156 41.625 C 248.492188 41.894531 248.492188 43.109375 248.492188 44.886719 "/>
<path style=" stroke:none;fill-rule:evenodd;fill:rgb(7.499695%,28.199768%,51.799011%);fill-opacity:1;" d="M 277.644531 61.207031 C 276.132813 63.023438 274.566406 63.136719 274.203125 63.136719 C 272.921875 63.136719 271.976563 62.203125 271.976563 61.054688 C 271.976563 59.09375 274.132813 58.355469 275.054688 58.035156 C 276.324219 57.625 276.617188 57.503906 277.644531 56.796875 Z M 283.578125 62.757813 C 281.796875 62.015625 281.796875 61.207031 281.796875 59.261719 L 281.796875 55.527344 C 281.796875 53.707031 281.796875 52.394531 280.753906 51.117188 C 279.347656 49.25 276.871094 49.164063 275.640625 49.164063 C 274.234375 49.164063 272.15625 49.375 269.683594 50.265625 L 269.164063 53.90625 L 269.683594 53.90625 C 270.191406 53.3125 270.710938 52.726563 271.621094 52.152344 C 272.566406 51.582031 273.75 51.257813 274.777344 51.257813 C 275.816406 51.257813 276.871094 51.605469 277.347656 52.511719 C 277.507813 52.875 277.558594 53.285156 277.558594 53.636719 C 277.558594 55.304688 275.890625 55.839844 274.234375 56.289063 L 273.066406 56.578125 C 271.449219 56.984375 267.726563 57.945313 267.726563 61.503906 C 267.726563 63.355469 268.855469 65.972656 272.683594 65.972656 C 275.398438 65.972656 276.796875 64.535156 277.9375 63.410156 C 278.328125 64.613281 278.761719 65.285156 279.976563 66.082031 L 283.839844 63.175781 "/>
<path style=" stroke:none;fill-rule:evenodd;fill:rgb(7.499695%,28.199768%,51.799011%);fill-opacity:1;" d="M 284.527344 52.371094 L 284.769531 52.78125 C 286.886719 52.847656 286.90625 53.9375 286.90625 56.160156 L 286.90625 61.382813 C 286.90625 63.097656 286.886719 64.617188 284.832031 64.941406 L 284.832031 65.402344 L 293.140625 65.402344 L 293.132813 64.941406 C 291.265625 64.410156 291.210938 63.652344 291.210938 61.796875 L 291.210938 55.917969 C 291.210938 55.101563 291.230469 53.90625 292.425781 52.996094 C 293.003906 52.578125 293.785156 52.226563 294.886719 52.226563 C 298.246094 52.226563 298.316406 55.042969 298.316406 55.917969 L 298.316406 61.796875 C 298.316406 63.566406 298.246094 64.507813 296.425781 64.941406 L 296.425781 65.402344 L 304.671875 65.402344 L 304.671875 64.941406 C 302.628906 64.535156 302.609375 63.566406 302.609375 61.46875 L 302.609375 55.527344 C 302.609375 54.011719 302.585938 52.457031 301.539063 51.152344 C 300.765625 50.140625 299.246094 49.207031 297.007813 49.207031 C 294.074219 49.207031 292.332031 50.824219 291.210938 51.890625 L 291.210938 48.890625 "/>
<g clip-path="url(#clip1)" clip-rule="nonzero">
<path style=" stroke:none;fill-rule:evenodd;fill:rgb(7.499695%,28.199768%,51.799011%);fill-opacity:1;" d="M 307.609375 62.175781 C 307.609375 63.652344 307.457031 64.617188 305.652344 64.941406 L 305.652344 65.402344 L 313.84375 65.402344 L 313.84375 64.941406 C 311.90625 64.507813 311.871094 63.46875 311.871094 61.859375 L 311.871094 57.339844 L 317.214844 63.023438 C 318.9375 64.800781 319.613281 65.367188 322.59375 65.402344 L 325.042969 65.402344 L 325.042969 64.941406 C 324.167969 64.535156 323.488281 63.757813 322.835938 63.023438 L 316.269531 56.074219 L 321.046875 51.796875 C 322.441406 50.628906 322.441406 50.578125 323.429688 50.265625 L 323.429688 49.789063 L 316.710938 49.789063 L 316.710938 50.265625 C 316.980469 50.332031 317.679688 50.460938 317.679688 51.078125 C 317.679688 51.539063 317.355469 51.851563 316.710938 52.511719 L 311.871094 56.730469 L 311.871094 40.691406 L 305.226563 44.089844 L 305.449219 44.519531 C 305.6875 44.445313 305.902344 44.414063 306.105469 44.414063 C 307.578125 44.414063 307.609375 45.738281 307.609375 47.125 "/>
</g>
<path style=" stroke:none;fill-rule:evenodd;fill:rgb(7.499695%,28.199768%,51.799011%);fill-opacity:1;" d="M 323.488281 18.136719 L 323.300781 18.304688 C 321.65625 20.347656 319.480469 21.273438 318.03125 21.273438 L 318.03125 21.484375 C 318.03125 21.484375 318.894531 21.46875 319.382813 21.917969 C 319.574219 22.089844 319.6875 22.363281 319.6875 22.675781 L 319.6875 29.933594 L 302.722656 29.933594 C 302.722656 29.722656 302.695313 18.136719 302.695313 18.136719 L 302.511719 18.304688 C 300.859375 20.347656 298.671875 21.273438 297.222656 21.273438 L 297.222656 21.484375 C 297.222656 21.484375 298.128906 21.46875 298.578125 21.917969 C 298.804688 22.089844 298.882813 22.363281 298.882813 22.675781 L 298.882813 29.933594 L 282.683594 29.933594 C 282.683594 29.722656 282.664063 6.746094 282.664063 6.746094 L 282.503906 6.976563 C 280.839844 9.003906 278.640625 9.910156 277.203125 9.910156 L 277.203125 10.101563 C 277.214844 10.101563 278.070313 10.101563 278.546875 10.542969 C 278.734375 10.746094 278.859375 10.992188 278.859375 11.332031 L 278.859375 29.933594 L 248.421875 29.933594 L 248.421875 22.675781 C 248.421875 22.363281 248.5625 22.089844 248.734375 21.917969 C 249.234375 21.46875 250.089844 21.484375 250.089844 21.484375 L 250.089844 21.273438 C 248.648438 21.273438 246.460938 20.347656 244.804688 18.304688 L 244.648438 18.136719 L 244.585938 34.070313 L 323.503906 34.070313 "/>
<path style=" stroke:none;fill-rule:evenodd;fill:rgb(7.499695%,28.199768%,51.799011%);fill-opacity:1;" d="M 152.871094 18.101563 L 152.699219 18.28125 C 151.054688 20.347656 148.820313 21.261719 147.359375 21.261719 L 147.359375 21.46875 C 147.390625 21.46875 148.257813 21.425781 148.746094 21.910156 C 148.953125 22.085938 149.066406 22.34375 149.066406 22.664063 L 149.066406 29.914063 C 148.886719 29.914063 108.863281 29.933594 108.863281 29.933594 L 108.863281 22.664063 C 108.863281 22.363281 108.949219 22.089844 109.140625 21.917969 C 109.617188 21.46875 110.496094 21.484375 110.515625 21.484375 L 110.515625 21.273438 C 109.058594 21.273438 106.894531 20.347656 105.21875 18.308594 L 105.027344 18.140625 L 104.996094 34.070313 L 152.882813 34.070313 "/>
<g clip-path="url(#clip2)" clip-rule="nonzero">
<path style=" stroke:none;fill-rule:nonzero;fill:rgb(100%,100%,100%);fill-opacity:1;" d="M 0 42.535156 C 0 19.050781 19.019531 0 42.503906 0 C 65.933594 0 85.007813 19.050781 85.007813 42.535156 C 85.007813 66 65.933594 85.039063 42.503906 85.039063 C 19.019531 85.039063 0 66 0 42.535156 "/>
</g>
<path style=" stroke:none;fill-rule:nonzero;fill:rgb(7.499695%,28.199768%,51.799011%);fill-opacity:1;" d="M 42.546875 82.105469 C 64.429688 82.105469 82.175781 64.332031 82.175781 42.460938 C 82.175781 20.542969 64.429688 2.78125 42.546875 2.78125 C 20.621094 2.78125 2.933594 20.542969 2.933594 42.460938 C 2.933594 64.332031 20.621094 82.105469 42.546875 82.105469 M 1.042969 42.460938 C 1.042969 19.5 19.582031 0.871094 42.546875 0.871094 C 65.457031 0.871094 84.105469 19.5 84.105469 42.460938 C 84.105469 65.375 65.457031 83.96875 42.546875 83.96875 C 19.582031 83.96875 1.042969 65.375 1.042969 42.460938 "/>
<path style=" stroke:none;fill-rule:nonzero;fill:rgb(92.89856%,70.199585%,11.399841%);fill-opacity:1;" d="M 16.777344 69.984375 C 17.546875 69.996094 40.371094 69.984375 40.371094 69.984375 L 40.371094 60.929688 L 15.601563 60.929688 C 15.601563 60.929688 11.589844 60.695313 11.589844 56.921875 L 11.589844 49.09375 L 9.792969 49.09375 L 9.792969 61.226563 C 9.792969 61.226563 13.613281 67.167969 16.777344 69.984375 "/>
<path style=" stroke:none;fill-rule:nonzero;fill:rgb(92.89856%,70.199585%,11.399841%);fill-opacity:1;" d="M 20.769531 50.003906 C 18.65625 50.003906 16.882813 48.25 16.882813 46.109375 L 16.882813 39.90625 L 15.101563 39.90625 L 15.101563 55.457031 C 15.101563 58.671875 17.988281 59.347656 19 59.347656 L 40.371094 59.347656 L 40.371094 50.003906 "/>
<path style=" stroke:none;fill-rule:nonzero;fill:rgb(92.89856%,70.199585%,11.399841%);fill-opacity:1;" d="M 26.242188 38.820313 C 25.34375 38.820313 22.269531 38.449219 22.269531 34.820313 L 22.269531 28.804688 L 20.386719 28.804688 L 20.386719 44.480469 C 20.386719 47.5625 23.253906 48.394531 24.300781 48.394531 L 40.371094 48.394531 L 40.371094 38.820313 L 26.242188 38.820313 C 26.242188 38.820313 27.164063 38.820313 26.242188 38.820313 "/>
<path style=" stroke:none;fill-rule:nonzero;fill:rgb(92.89856%,70.199585%,11.399841%);fill-opacity:1;" d="M 30.960938 28.195313 C 30.960938 28.195313 26.988281 28.027344 27.039063 24.167969 L 27.039063 18.628906 L 25.253906 18.628906 L 25.253906 33.199219 C 25.242188 36.40625 28.339844 37.09375 29.148438 37.09375 L 40.371094 37.09375 L 40.371094 28.195313 "/>
<path style=" stroke:none;fill-rule:nonzero;fill:rgb(92.89856%,70.199585%,11.399841%);fill-opacity:1;" d="M 36.347656 16.960938 C 32.828125 17.0625 32.386719 13.035156 32.386719 13.035156 L 32.386719 7.984375 L 30.566406 7.984375 L 30.566406 22.554688 C 30.605469 25.679688 33.683594 26.445313 34.480469 26.445313 L 40.371094 26.445313 L 40.371094 16.960938 "/>
<path style=" stroke:none;fill-rule:nonzero;fill:rgb(92.89856%,70.199585%,11.399841%);fill-opacity:1;" d="M 38.710938 4.976563 C 38.285156 4.996094 37.820313 5.078125 37.371094 5.132813 C 37.175781 5.148438 36.964844 5.214844 36.828125 5.257813 L 36.828125 15.335938 L 40.371094 15.335938 L 40.371094 4.882813 C 39.832031 4.882813 39.285156 4.882813 38.710938 4.976563 "/>
<path style=" stroke:none;fill-rule:nonzero;fill:rgb(92.89856%,70.199585%,11.399841%);fill-opacity:1;" d="M 18.550781 71.589844 C 28.492188 79.800781 39.832031 79.957031 40.371094 80.003906 L 40.371094 71.589844 "/>
<path style=" stroke:none;fill-rule:nonzero;fill:rgb(7.499695%,28.199768%,51.799011%);fill-opacity:1;" d="M 59.53125 16.960938 C 61.90625 19.8125 63.820313 23.039063 65.289063 26.59375 L 76.488281 26.59375 C 74.863281 23.039063 72.660156 19.761719 70.03125 16.960938 "/>
<path style=" stroke:none;fill-rule:nonzero;fill:rgb(7.499695%,28.199768%,51.799011%);fill-opacity:1;" d="M 68.121094 37.226563 L 79.621094 37.226563 C 79.1875 34.101563 78.402344 31.019531 77.222656 28.195313 L 65.882813 28.195313 C 66.960938 31.019531 67.71875 34.101563 68.121094 37.226563 "/>
<path style=" stroke:none;fill-rule:nonzero;fill:rgb(7.499695%,28.199768%,51.799011%);fill-opacity:1;" d="M 68.519531 42.460938 C 68.519531 44.476563 68.320313 46.441406 68.03125 48.398438 L 79.480469 48.398438 C 79.824219 46.441406 80.042969 44.476563 80.042969 42.460938 C 80.042969 41.222656 79.957031 40.027344 79.855469 38.820313 L 68.320313 38.820313 C 68.414063 40.027344 68.519531 41.222656 68.519531 42.460938 "/>
<path style=" stroke:none;fill-rule:nonzero;fill:rgb(7.499695%,28.199768%,51.799011%);fill-opacity:1;" d="M 64.789063 59.347656 L 75.972656 59.347656 C 77.484375 56.410156 78.59375 53.308594 79.300781 50.003906 L 67.777344 50.003906 C 67.171875 53.285156 66.144531 56.40625 64.789063 59.347656 "/>
<path style=" stroke:none;fill-rule:nonzero;fill:rgb(7.499695%,28.199768%,51.799011%);fill-opacity:1;" d="M 57.761719 69.984375 L 68.03125 69.984375 C 70.816406 67.339844 73.234375 64.328125 75.1875 60.929688 L 64.058594 60.929688 C 62.398438 64.269531 60.253906 67.304688 57.761719 69.984375 "/>
<path style=" stroke:none;fill-rule:nonzero;fill:rgb(7.499695%,28.199768%,51.799011%);fill-opacity:1;" d="M 41.996094 80.078125 C 42.113281 80.078125 42.230469 80.109375 42.40625 80.109375 C 51.460938 80.109375 59.777344 76.90625 66.28125 71.589844 L 56.105469 71.589844 C 52.117188 75.402344 47.28125 78.371094 41.996094 80.078125 "/>
<path style=" stroke:none;fill-rule:nonzero;fill:rgb(7.499695%,28.199768%,51.799011%);fill-opacity:1;" d="M 58.148438 15.335938 L 68.519531 15.335938 C 61.742188 8.78125 52.550781 4.789063 42.40625 4.789063 L 41.996094 4.789063 C 48.199219 6.792969 53.78125 10.5 58.148438 15.335938 "/>
<path style=" stroke:none;fill-rule:nonzero;fill:rgb(7.499695%,28.199768%,51.799011%);fill-opacity:1;" d="M 49.574219 15.335938 L 55.628906 15.335938 C 52.1875 11.863281 48.113281 9.042969 43.535156 7.125 C 45.8125 9.574219 47.8125 12.292969 49.574219 15.335938 "/>
<path style=" stroke:none;fill-rule:nonzero;fill:rgb(7.499695%,28.199768%,51.799011%);fill-opacity:1;" d="M 54.347656 26.59375 L 63.296875 26.59375 C 61.691406 23.039063 59.605469 19.8125 57.0625 16.960938 L 50.488281 16.960938 C 52.0625 19.917969 53.347656 23.167969 54.347656 26.59375 "/>
<path style=" stroke:none;fill-rule:nonzero;fill:rgb(7.499695%,28.199768%,51.799011%);fill-opacity:1;" d="M 56.398438 37.226563 L 66.296875 37.226563 C 65.882813 34.101563 65.09375 31.019531 63.953125 28.195313 L 54.84375 28.195313 C 55.609375 31.089844 56.097656 34.101563 56.398438 37.226563 "/>
<path style=" stroke:none;fill-rule:nonzero;fill:rgb(7.499695%,28.199768%,51.799011%);fill-opacity:1;" d="M 56.65625 42.460938 C 56.65625 44.476563 56.46875 46.441406 56.265625 48.398438 L 66.234375 48.398438 C 66.492188 46.441406 66.71875 44.476563 66.71875 42.460938 C 66.71875 41.222656 66.628906 40.027344 66.546875 38.820313 L 56.46875 38.820313 C 56.566406 40.042969 56.65625 41.222656 56.65625 42.460938 "/>
<path style=" stroke:none;fill-rule:nonzero;fill:rgb(7.499695%,28.199768%,51.799011%);fill-opacity:1;" d="M 54.042969 59.347656 L 62.785156 59.347656 C 64.226563 56.410156 65.289063 53.308594 65.964844 50.003906 L 56.097656 50.003906 C 55.648438 53.265625 55 56.390625 54.042969 59.347656 "/>
<path style=" stroke:none;fill-rule:nonzero;fill:rgb(7.499695%,28.199768%,51.799011%);fill-opacity:1;" d="M 49.367188 69.984375 L 55.167969 69.984375 C 57.847656 67.339844 60.148438 64.289063 62.015625 60.929688 L 53.523438 60.929688 C 52.425781 64.183594 50.96875 67.195313 49.367188 69.984375 "/>
<path style=" stroke:none;fill-rule:nonzero;fill:rgb(7.499695%,28.199768%,51.799011%);fill-opacity:1;" d="M 43.582031 77.742188 C 47.144531 76.207031 50.488281 74.109375 53.425781 71.589844 L 48.355469 71.589844 C 46.9375 73.804688 45.328125 75.894531 43.582031 77.742188 "/>
<path style=" stroke:none;fill-rule:nonzero;fill:rgb(7.499695%,28.199768%,51.799011%);fill-opacity:1;" d="M 41.996094 71.589844 L 41.996094 76.84375 C 43.53125 75.210938 44.988281 73.46875 46.269531 71.589844 "/>
<path style=" stroke:none;fill-rule:nonzero;fill:rgb(7.499695%,28.199768%,51.799011%);fill-opacity:1;" d="M 51.71875 60.929688 L 41.996094 60.929688 L 41.996094 69.984375 L 47.28125 69.984375 C 49.039063 67.195313 50.523438 64.183594 51.71875 60.929688 "/>
<path style=" stroke:none;fill-rule:nonzero;fill:rgb(7.499695%,28.199768%,51.799011%);fill-opacity:1;" d="M 54.398438 50.003906 L 42.007813 50.003906 L 42.007813 59.347656 L 52.230469 59.347656 C 53.261719 56.390625 53.957031 53.265625 54.398438 50.003906 "/>
<path style=" stroke:none;fill-rule:nonzero;fill:rgb(7.499695%,28.199768%,51.799011%);fill-opacity:1;" d="M 54.953125 42.460938 C 54.953125 41.222656 54.871094 40.027344 54.800781 38.820313 L 41.996094 38.820313 L 41.996094 48.398438 L 54.609375 48.398438 C 54.800781 46.441406 54.953125 44.476563 54.953125 42.460938 "/>
<path style=" stroke:none;fill-rule:nonzero;fill:rgb(7.499695%,28.199768%,51.799011%);fill-opacity:1;" d="M 53.0625 28.195313 L 42.007813 28.195313 L 42.007813 37.230469 L 54.660156 37.230469 C 54.398438 34.105469 53.867188 31.089844 53.0625 28.195313 "/>
<path style=" stroke:none;fill-rule:nonzero;fill:rgb(7.499695%,28.199768%,51.799011%);fill-opacity:1;" d="M 48.546875 16.960938 L 41.996094 16.960938 L 41.996094 26.59375 L 52.550781 26.59375 C 51.53125 23.167969 50.167969 19.917969 48.546875 16.960938 "/>
<path style=" stroke:none;fill-rule:nonzero;fill:rgb(7.499695%,28.199768%,51.799011%);fill-opacity:1;" d="M 41.996094 8.019531 L 41.996094 15.335938 L 47.550781 15.335938 C 45.945313 12.65625 43.996094 10.195313 41.996094 8.019531 "/>
</g>
</svg>
