<svg width="218" height="84" xmlns="http://www.w3.org/2000/svg" xmlns:xlink="http://www.w3.org/1999/xlink" overflow="hidden"><defs><clipPath id="clip0"><rect x="532" y="318" width="218" height="84"/></clipPath></defs><g clip-path="url(#clip0)" transform="translate(-532 -318)"><path d="M85.14 134.65 82.92 134.65C81.44 134.65 80.82 133.7 80.82 132.33L80.82 122.52 85.14 122.52 85.14 119.75 80.82 119.75 80.82 114.53 77.71 114.53 77.71 132.27C77.71 136.01 79.59 137.61 82.92 137.61L85.15 137.61 85.15 134.65 85.14 134.65Z" fill="#0072AA" fill-rule="evenodd" transform="matrix(1.00345 0 0 1 489.605 219.748)"/><path d="M55.18 129.18 55.18 129.31C55.18 135.66 60.37 137.94 65.23 137.94 69.98 137.94 74.75 135.67 74.75 130.64 74.75 125.76 70.74 124.44 66.98 123.58L65.67 123.3C62.3 122.56 59.38 121.94 59.38 119.43 59.38 115.85 63.06 115.45 64.63 115.45 68.1 115.45 70.12 117.12 70.46 120.25L70.47 120.37 73.75 120.37 73.75 120.23C73.56 115.31 70.29 112.5 64.76 112.5 60.36 112.5 55.92 114.71 55.92 119.66 55.92 124.08 59.61 125.25 63.73 126.15L64.54 126.33C68.01 127.07 71.3 127.77 71.3 130.74 71.3 134.43 67.57 134.97 65.33 134.97 63.45 134.97 61.75 134.49 60.55 133.62 59.19 132.63 58.47 131.15 58.47 129.31L58.47 129.18 55.18 129.18 55.18 129.18Z" fill="#0072AA" fill-rule="evenodd" transform="matrix(1.00345 0 0 1 489.605 219.748)"/><path d="M103.88 134.75 103.71 134.81C103.32 134.95 103.07 134.97 102.88 134.97 102.13 134.97 102.1 134.56 102.1 133.15L102.1 124.2C102.1 120.89 99.93 119.29 95.45 119.29 92.74 119.29 88.15 120.06 87.95 125.24L87.95 125.38 91.06 125.38 91.07 125.26C91.18 123.1 92.53 122.07 95.29 122.07 97.83 122.07 99.03 122.95 99.03 124.85 99.03 126.43 97.43 126.65 95.22 126.96 94.59 127.05 93.95 127.14 93.27 127.27 90.24 127.85 87.27 128.76 87.27 132.75 87.27 135.88 89.47 137.76 93.16 137.76 95.63 137.76 97.65 136.88 99.18 135.22 99.3 137.27 100.6 137.76 101.7 137.76 102.6 137.76 103.27 137.58 103.82 137.25L103.88 137.21 103.88 134.75 103.88 134.75ZM93.79 134.97C92.82 134.97 90.55 134.73 90.55 132.55 90.55 130.44 92.27 129.83 93.94 129.54 94.45 129.45 95 129.38 95.51 129.32 96.85 129.15 98.11 128.98 98.97 128.48 98.97 128.48 99.04 128.44 98.97 128.48L98.97 131.19C98.99 132.65 97.57 134.97 93.79 134.97L93.79 134.97Z" fill="#0072AA" fill-rule="evenodd" transform="matrix(1.00345 0 0 1 489.605 219.748)"/><path d="M106.64 119.76 106.64 137.41 109.76 137.41 109.76 127.46C109.76 124.14 111.63 122.13 114.77 122.13 116.86 122.13 118.17 123.44 118.17 125.51L118.17 137.4 121.29 137.4 121.29 125.84C121.29 121.47 119.28 119.35 115.17 119.35 112.66 119.35 110.79 120.33 109.58 122.28L109.58 119.75 106.64 119.75 106.64 119.76Z" fill="#0072AA" fill-rule="evenodd" transform="matrix(1.00345 0 0 1 489.605 219.748)"/><path d="M137.85 113.13 137.85 121.91C136.53 120.05 134.15 119.36 132.3 119.36 127.39 119.36 124.22 122.95 124.22 128.54 124.22 131.1 124.95 133.41 126.25 135.04 127.7 136.85 129.81 137.84 132.37 137.84 134.92 137.84 136.89 136.9 137.85 135.29L137.85 137.41 140.97 137.41 140.97 113.13 137.85 113.13 137.85 113.13ZM132.77 135.03C129.14 135.03 127.51 131.88 127.51 128.73 127.51 126.75 128.01 122.13 132.6 122.13 137.56 122.13 137.95 127.08 137.95 128.59 137.95 131.72 136.6 135.03 132.77 135.03L132.77 135.03Z" fill="#0072AA" fill-rule="evenodd" transform="matrix(1.00345 0 0 1 489.605 219.748)"/><path d="M160.73 134.81 160.56 134.87C160.17 135.01 159.91 135.03 159.73 135.03 158.97 135.03 158.93 134.62 158.93 133.22L158.93 124.27C158.93 120.96 156.76 119.35 152.29 119.35 149.56 119.35 144.99 120.12 144.78 125.3L144.77 125.44 147.89 125.44 147.9 125.32C148.01 123.16 149.35 122.14 152.12 122.14 154.67 122.14 155.85 123.04 155.85 124.91 155.85 126.49 154.26 126.71 152.06 127.02 151.42 127.11 150.78 127.2 150.11 127.33 147.09 127.91 144.12 128.82 144.12 132.81 144.12 135.94 146.31 137.82 150 137.82 152.48 137.82 154.49 136.94 156.02 135.28 156.14 137.33 157.44 137.82 158.54 137.82 159.45 137.82 160.12 137.64 160.67 137.31L160.73 137.27 160.73 134.81 160.73 134.81ZM150.64 135.03C149.67 135.03 147.42 134.79 147.42 132.61 147.42 130.5 149.13 129.89 150.8 129.6 151.31 129.51 151.84 129.44 152.38 129.38 153.72 129.21 154.99 129.04 155.83 128.53 155.83 128.53 155.9 128.49 155.83 128.53L155.83 131.24C155.82 132.7 154.42 135.03 150.64 135.03L150.64 135.03Z" fill="#0072AA" fill-rule="evenodd" transform="matrix(1.00345 0 0 1 489.605 219.748)"/><path d="M172.85 119.36 172.73 119.36C169.82 119.27 167.86 120.43 166.39 123.17L166.39 119.76 163.45 119.76 163.45 137.41 166.56 137.41 166.56 129.54C166.56 124.84 168.53 122.64 172.73 122.64L172.86 122.64 172.86 119.36 172.85 119.36Z" fill="#0072AA" fill-rule="evenodd" transform="matrix(1.00345 0 0 1 489.605 219.748)"/><path d="M186.91 113.13 186.91 121.91C185.59 120.05 183.21 119.36 181.34 119.36 176.45 119.36 173.27 122.95 173.27 128.54 173.27 131.1 173.99 133.41 175.31 135.04 176.76 136.85 178.86 137.84 181.42 137.84 183.98 137.84 185.95 136.9 186.9 135.29L186.9 137.42 190.03 137.42 190.03 113.14 186.91 113.14 186.91 113.13ZM181.84 135.03C178.2 135.03 176.58 131.88 176.58 128.73 176.58 126.75 177.07 122.13 181.68 122.13 186.63 122.13 187.02 127.08 187.02 128.59 187.01 131.72 185.65 135.03 181.84 135.03L181.84 135.03Z" fill="#0072AA" fill-rule="evenodd" transform="matrix(1.00345 0 0 1 489.605 219.748)"/><path d="M61.62 161.94 61.61 162.06C61.29 166.25 58.69 168.87 54.82 168.87 52.15 168.87 50.07 167.9 48.68 165.94 47.43 164.23 46.77 161.81 46.77 158.93 46.77 156.31 47.46 153.95 48.68 152.26 50.08 150.35 52.2 149.34 54.79 149.34 58.3 149.34 60.76 151.21 61.38 154.36L61.4 154.46 64.86 154.46 64.84 154.31C64.49 151.82 63.31 149.79 61.45 148.4 59.69 147.09 57.4 146.39 54.83 146.39 51.28 146.39 48.32 147.69 46.26 150.14 44.37 152.4 43.32 155.62 43.32 159.16 43.32 166.96 47.63 171.81 54.56 171.81 57.54 171.81 60.07 170.91 61.89 169.22 63.67 167.55 64.78 165.06 65.08 162.08L65.09 161.94 61.62 161.94 61.62 161.94Z" fill="#0072AA" fill-rule="evenodd" transform="matrix(1.00345 0 0 1 489.605 219.748)"/><path d="M68.06 146.94 68.06 171.26 71.18 171.26 71.18 161.29C71.18 157.95 73.06 155.96 76.2 155.96 78.31 155.96 79.6 157.25 79.6 159.32L79.6 171.25 82.72 171.25 82.72 159.65C82.72 155.3 80.72 153.18 76.61 153.18 74.76 153.18 72.29 153.88 71.18 155.85L71.18 146.92 68.06 146.92 68.06 146.94Z" fill="#0072AA" fill-rule="evenodd" transform="matrix(1.00345 0 0 1 489.605 219.748)"/><path d="M89.25 159.26 89.25 159.14C89.36 156.98 90.7 155.98 93.46 155.98 96.02 155.98 97.2 156.86 97.2 158.74 97.2 160.34 95.61 160.56 93.4 160.87 92.78 160.96 92.14 161.05 91.46 161.18 88.42 161.76 85.46 162.66 85.46 166.64 85.46 169.78 87.66 171.65 91.35 171.65 93.81 171.65 95.84 170.79 97.36 169.13 97.48 171.18 98.79 171.65 99.89 171.65 100.78 171.65 101.45 171.49 102 171.16L102.06 171.12 102.06 168.65 101.89 168.71C101.5 168.85 101.24 168.87 101.06 168.87 100.32 168.87 100.28 168.47 100.28 167.04L100.28 158.09C100.28 154.8 98.1 153.2 93.62 153.2 90.9 153.2 86.32 153.97 86.12 159.13L86.12 159.26 89.25 159.26 89.25 159.26ZM91.99 168.87C91.01 168.87 88.75 168.64 88.75 166.43 88.75 164.32 90.46 163.73 92.15 163.44 92.66 163.35 93.19 163.28 93.71 163.21 95.06 163.04 96.33 162.87 97.18 162.36 97.18 162.36 97.25 162.32 97.18 162.36L97.18 165.05C97.17 166.52 95.77 168.87 91.99 168.87L91.99 168.87Z" fill="#0072AA" fill-rule="evenodd" transform="matrix(1.00345 0 0 1 489.605 219.748)"/><path d="M190.04 171.24 190.04 146.96 186.91 146.96 186.91 155.74C185.59 153.87 183.21 153.19 181.34 153.19 176.45 153.19 173.27 156.78 173.27 162.37 173.27 164.91 173.99 167.23 175.31 168.87 176.76 170.68 178.86 171.65 181.42 171.65 183.98 171.65 185.95 170.73 186.9 169.12L186.9 171.25 190.04 171.25 190.04 171.24ZM181.84 168.87C178.2 168.87 176.58 165.7 176.58 162.58 176.58 160.6 177.07 155.98 181.68 155.98 186.63 155.98 187.02 160.94 187.02 162.45 187.01 165.54 185.65 168.87 181.84 168.87L181.84 168.87Z" fill="#0072AA" fill-rule="evenodd" transform="matrix(1.00345 0 0 1 489.605 219.748)"/><path d="M138.72 165.77C138.19 167.77 136.68 168.87 134.4 168.87 132.79 168.87 131.44 168.37 130.52 167.41 129.58 166.42 129.09 165.01 129.11 163.4L142 163.4 142.12 163.4 142.13 163.28C142.26 160.14 141.29 157.17 139.55 155.36 138.16 153.92 136.34 153.2 134.13 153.2 129.32 153.2 125.82 157.05 125.82 162.38 126.01 168.28 129.1 171.66 134.29 171.66 138.27 171.66 141 169.52 141.82 165.78L138.72 165.78 138.72 165.77ZM133.96 155.97C136.57 155.97 138.63 157.96 138.82 160.63L129.13 160.63C129.36 158.27 130.93 155.97 133.96 155.97L133.96 155.97Z" fill="#0072AA" fill-rule="evenodd" transform="matrix(1.00345 0 0 1 489.605 219.748)"/><path d="M167.82 165.81C167.28 167.79 165.75 168.87 163.5 168.87 161.89 168.87 160.56 168.37 159.63 167.41 158.67 166.42 158.18 165.01 158.2 163.4L171.09 163.4 171.22 163.4 171.23 163.28C171.35 160.14 170.39 157.17 168.65 155.36 167.27 153.92 165.44 153.2 163.23 153.2 158.41 153.2 154.93 157.05 154.93 162.38 155.11 168.28 158.2 171.66 163.4 171.66 167.37 171.66 170.09 169.54 170.92 165.82L167.82 165.82 167.82 165.81ZM163.07 155.97C165.67 155.97 167.74 157.96 167.94 160.63L158.22 160.63C158.46 158.27 160.04 155.97 163.07 155.97L163.07 155.97Z" fill="#0072AA" fill-rule="evenodd" transform="matrix(1.00345 0 0 1 489.605 219.748)"/><path d="M107.94 171.26 107.94 163.37C107.94 158.65 109.9 156.47 114.11 156.47L114.24 156.47 114.24 153.19 114.12 153.19C111.2 153.09 109.23 154.26 107.78 156.98L107.78 153.57 104.83 153.57 104.83 171.26 107.94 171.26 107.94 171.26Z" fill="#0072AA" fill-rule="evenodd" transform="matrix(1.00345 0 0 1 489.605 219.748)"/><path d="M148.33 171.24 148.33 163.37C148.33 158.65 150.28 156.47 154.49 156.47L154.62 156.47 154.62 153.19 154.5 153.19C151.57 153.09 149.61 154.26 148.16 156.98L148.16 153.58 145.21 153.58 145.21 171.24 148.33 171.24 148.33 171.24Z" fill="#0072AA" fill-rule="evenodd" transform="matrix(1.00345 0 0 1 489.605 219.748)"/><path d="M124.26 168.49 122.05 168.49C120.56 168.49 119.94 167.54 119.94 166.15L119.94 156.36 124.26 156.36 124.26 153.59 119.94 153.59 119.94 148.38 116.82 148.38 116.82 166.1C116.82 169.86 118.71 171.46 122.04 171.46L124.26 171.46 124.26 168.49 124.26 168.49Z" fill="#0072AA" fill-rule="evenodd" transform="matrix(1.00345 0 0 1 489.605 219.748)"/><path d="M219.89 177.88C217.76 179.15 215.83 179.91 213.8 179.91 208.55 179.91 204.16 175.61 203.91 170.44L214.14 164.34 230.04 171.45 219.89 177.88 219.89 177.88Z" fill="#72B0D2" fill-rule="evenodd" transform="matrix(1.00345 0 0 1 489.605 219.748)"/><path d="M225.97 151.69 218.37 148.34C214.97 146.82 211.77 145.56 211.77 141.82 211.77 139.88 212.36 138.87 213.29 137.86L229.36 144.95 225.37 147.25C224.27 147.92 223.51 148.52 223.51 149.36 223.52 150.27 224.56 151.05 225.97 151.69L225.97 151.69Z" fill="#A5D1A1" fill-rule="evenodd" transform="matrix(1.00345 0 0 1 489.605 219.748)"/><path d="M233.44 116.62 225.65 121.35C224.96 121.77 224.03 122.44 224.03 123.48 224.03 124.66 225.83 125.56 227.43 126.32L217.68 122.02C214.81 120.76 211.94 119.32 211.94 115.86 211.94 114.41 212.36 113.23 213.04 112.22L234.11 99.34C236.64 100.77 239.09 103.67 239.09 107.55 239.08 111.71 236.98 114.49 233.44 116.62L233.44 116.62Z" fill="#72B0D2" fill-rule="evenodd" transform="matrix(1.00345 0 0 1 489.605 219.748)"/><path d="M250.01 131.85 248.07 132.95 231.97 125.84 250.68 114.58C253.21 116.04 255.68 118.9 255.68 122.79 255.69 126.94 253.64 129.8 250.01 131.85L250.01 131.85Z" fill="#A5D1A1" fill-rule="evenodd" transform="matrix(1.00345 0 0 1 489.605 219.748)"/><path d="M236.42 145.52 245.94 149.7C249.51 151.3 250.6 153.17 250.6 155.54 250.6 156.89 249.84 158.24 248.75 159.17L232.74 152.06 235.45 150.54C237.74 149.28 238.5 148.51 238.5 147.67 238.5 146.79 237.97 146.22 236.42 145.52L236.42 145.52Z" fill="#72B0D2" fill-rule="evenodd" transform="matrix(1.00345 0 0 1 489.605 219.748)"/><path d="M253.39 180.66C249.34 177.54 245.02 175.43 239.76 173.05L215.48 162.31C209.38 159.59 205.34 155.97 205.34 149.87 205.34 143.94 208.21 141.07 211.94 138.71L213.29 137.86C212.36 138.87 211.77 139.88 211.77 141.82 211.77 145.56 214.98 146.82 218.37 148.34L246.62 160.79C251.53 162.9 256.03 166.53 256.03 172.71 256.03 176.11 254.74 179.15 253.39 180.66L253.39 180.66Z" fill="#22AA47" fill-rule="evenodd" transform="matrix(1.00345 0 0 1 489.605 219.748)"/><path d="M250.52 158.07 248.75 159.17C249.84 158.24 250.6 156.89 250.6 155.54 250.6 153.17 249.5 151.3 245.94 149.7L215.73 136.4C209.63 133.7 205.84 130.22 205.84 124.15 205.84 118.56 208.62 114.91 213.03 112.21 212.35 113.22 211.93 114.4 211.93 115.85 211.93 119.31 214.8 120.75 217.67 122.01L247.03 134.96C252.37 137.32 256.69 140.89 256.69 147.41 256.7 152.5 254.32 155.71 250.52 158.07L250.52 158.07Z" fill="#0072AA" fill-rule="evenodd" transform="matrix(1.00345 0 0 1 489.605 219.748)"/></g></svg>