<svg width="927" height="1391" xmlns="http://www.w3.org/2000/svg" xmlns:xlink="http://www.w3.org/1999/xlink" overflow="hidden"><defs><clipPath id="clip0"><rect x="1645" y="523" width="927" height="1391"/></clipPath></defs><g clip-path="url(#clip0)" transform="translate(-1645 -523)"><path d="M1785.5 523 2539.5 523C2557.45 523 2572 537.54 2572 555.478 2572 573.415 2557.45 587.955 2539.5 587.955L2077.49 587.955 1914.48 1747.04C1911.99 1764.8 1895.55 1777.18 1877.78 1774.68 1860 1772.18 1847.62 1755.76 1850.12 1738L2011.86 587.955 1785.5 587.955C1767.55 587.955 1753 573.415 1753 555.478 1753 537.54 1767.55 523 1785.5 523Z" fill="#FF0000" fill-rule="evenodd"/><path d="M2288.51 1086 2366.5 1086C2384.45 1086 2399 1100.54 2399 1118.48 2399 1136.41 2384.45 1150.95 2366.5 1150.95L2312.89 1150.95 2209.51 1886.03C2207.01 1903.8 2190.58 1916.17 2172.81 1913.68L2171.58 1913.24 2167.83 1914 1677.5 1914C1659.55 1914 1645 1899.46 1645 1881.52 1645 1863.59 1659.55 1849.05 1677.5 1849.05L2149.08 1849.05 2252.44 1114.03C2254.32 1100.71 2264.03 1090.41 2276.27 1087.15L2285.52 1086.6Z" fill="#404040" fill-rule="evenodd"/></g></svg>