<?xml version="1.0" encoding="UTF-8" standalone="no"?>
<!-- Created with Inkscape (http://www.inkscape.org/) -->

<svg
   xmlns:dc="http://purl.org/dc/elements/1.1/"
   xmlns:cc="http://creativecommons.org/ns#"
   xmlns:rdf="http://www.w3.org/1999/02/22-rdf-syntax-ns#"
   xmlns:svg="http://www.w3.org/2000/svg"
   xmlns="http://www.w3.org/2000/svg"
   xmlns:xlink="http://www.w3.org/1999/xlink"
   xmlns:sodipodi="http://sodipodi.sourceforge.net/DTD/sodipodi-0.dtd"
   xmlns:inkscape="http://www.inkscape.org/namespaces/inkscape"
   id="svg2985"
   version="1.1"
   inkscape:version="0.48.5 r10040"
   width="1000"
   height="353.90768"
   xml:space="preserve"
   sodipodi:docname="A.svg"><metadata
     id="metadata2991"><rdf:RDF><cc:Work
         rdf:about=""><dc:format>image/svg+xml</dc:format><dc:type
           rdf:resource="http://purl.org/dc/dcmitype/StillImage" /><dc:title></dc:title></cc:Work></rdf:RDF></metadata><defs
     id="defs2989"><clipPath
       clipPathUnits="userSpaceOnUse"
       id="clipPath2999"><path
         d="m 0,594.96 841.89,0 L 841.89,0 0,0 0,594.96 z"
         id="path3001"
         inkscape:connector-curvature="0" /></clipPath><clipPath
       clipPathUnits="userSpaceOnUse"
       id="clipPath3015"><path
         d="m 750.99,214.084 c 30.501,10.073 64.168,16.979 99.4,21.649 l 0,157.771 C 736.894,362.746 655.275,297.277 611.145,214.084 l 139.845,0 z m -651.702,0 C 86.687,252.66 76.254,294.294 67.821,339.181 l -31.104,-6.999 c 7.405,-40.164 17.59,-79.624 30.417,-118.098 l 32.154,0"
         id="path3017"
         inkscape:connector-curvature="0" /></clipPath><clipPath
       clipPathUnits="userSpaceOnUse"
       id="clipPath3021"><path
         d="m 0,594.96 841.89,0 L 841.89,0 0,0 0,594.96 z"
         id="path3023"
         inkscape:connector-curvature="0" /></clipPath><clipPath
       clipPathUnits="userSpaceOnUse"
       id="clipPath3167"><path
         d="m 605.281,15.502 c -0.608,5.833 -0.92,11.67 -0.92,17.496 0,99.286 60.772,152.731 146.63,181.086 l -139.846,0 c -24.921,-46.981 -37.887,-99.615 -37.887,-154.842 0,-14.99 1.238,-29.584 3.571,-43.74 l 28.452,0 z m -401.193,0 c -44.774,54.687 -79.245,120.343 -104.8,198.582 l -32.154,0 C 90.477,144.063 122.567,77.306 162.562,15.502 l 41.526,0"
         id="path3169"
         inkscape:connector-curvature="0" /></clipPath><clipPath
       clipPathUnits="userSpaceOnUse"
       id="clipPath3277"><path
         d="m 609.553,-8.954 c -1.982,8.118 -3.419,16.283 -4.272,24.455 l -28.451,0 c 1.368,-8.305 3.114,-16.46 5.208,-24.455 l 27.515,0 z m -384.072,0 c -7.378,7.896 -14.507,16.046 -21.392,24.455 l -41.527,0 c 5.333,-8.241 10.807,-16.394 16.42,-24.455 l 46.499,0"
         id="path3279"
         inkscape:connector-curvature="0" /></clipPath><clipPath
       clipPathUnits="userSpaceOnUse"
       id="clipPath3283"><path
         d="m 0,594.96 841.89,0 L 841.89,0 0,0 0,594.96 z"
         id="path3285"
         inkscape:connector-curvature="0" /></clipPath><clipPath
       clipPathUnits="userSpaceOnUse"
       id="clipPath3327"><path
         d="m 378.85,267.406 84.19,0 0,59.53 -84.19,0 0,-59.53 z"
         id="path3329"
         inkscape:connector-curvature="0" /></clipPath><clipPath
       clipPathUnits="userSpaceOnUse"
       id="clipPath3339"><path
         d="m 455.456,289.524 c 2.359,0.779 4.913,1.362 7.584,1.795 l 0,14.951 c -9.92,-3.175 -17.104,-9.208 -21.102,-16.746 l 13.518,0 z m -62.998,0 c -1.218,3.729 -2.226,7.753 -3.042,12.092 l -3.006,-0.676 c 0.715,-3.883 1.7,-7.697 2.94,-11.416 l 3.108,0"
         id="path3341"
         inkscape:connector-curvature="0" /></clipPath><clipPath
       clipPathUnits="userSpaceOnUse"
       id="clipPath3483"><path
         d="m 441.371,270.328 c -0.059,0.563 -0.089,1.128 -0.089,1.691 0,9.597 5.875,14.764 14.174,17.505 l -13.518,0 c -2.409,-4.542 -3.663,-9.63 -3.663,-14.968 0,-1.449 0.12,-2.86 0.346,-4.228 l 2.75,0 z m -38.782,0 c -4.328,5.286 -7.66,11.633 -10.131,19.196 l -3.108,0 c 2.256,-6.769 5.358,-13.222 9.225,-19.196 l 4.014,0"
         id="path3485"
         inkscape:connector-curvature="0" /></clipPath><clipPath
       clipPathUnits="userSpaceOnUse"
       id="clipPath3593"><path
         d="m 441.929,267.406 c -0.268,0.968 -0.456,1.944 -0.558,2.921 l -2.75,0 c 0.164,-0.996 0.384,-1.971 0.656,-2.921 l 2.652,0 z m -36.743,0 c -0.903,0.935 -1.768,1.909 -2.597,2.921 l -4.014,0 c 0.639,-0.987 1.298,-1.961 1.979,-2.921 l 4.632,0"
         id="path3595"
         inkscape:connector-curvature="0" /></clipPath><clipPath
       clipPathUnits="userSpaceOnUse"
       id="clipPath3617"><path
         d="m 0,594.96 841.89,0 L 841.89,0 0,0 0,594.96 z"
         id="path3619"
         inkscape:connector-curvature="0" /></clipPath><clipPath
       clipPathUnits="userSpaceOnUse"
       id="clipPath4387"><path
         inkscape:connector-curvature="0"
         d="m 430.866,48.1888 119.0551,0 0,48.189 -119.0551,0 0,-48.189 z"
         id="path4389" /></clipPath><clipPath
       clipPathUnits="userSpaceOnUse"
       id="clipPath4395"><path
         inkscape:connector-curvature="0"
         d="m 437.244,53.5098 106.299,0 0,37.5506 -106.299,0 0,-37.5506 z"
         id="path4397" /></clipPath><linearGradient
       inkscape:collect="always"
       xlink:href="#linearGradient4413"
       id="linearGradient4493"
       gradientUnits="userSpaceOnUse"
       gradientTransform="matrix(-69.9054,6.1e-6,6.1e-6,69.9054,525.132,72.285)"
       spreadMethod="pad"
       x1="0"
       y1="0"
       x2="1"
       y2="0" /><linearGradient
       x1="0"
       y1="0"
       x2="1"
       y2="0"
       gradientUnits="userSpaceOnUse"
       gradientTransform="matrix(-69.9054,6.1e-6,6.1e-6,69.9054,525.132,72.285)"
       spreadMethod="pad"
       id="linearGradient4413"><stop
         style="stop-opacity:1;stop-color:#1c63b7"
         offset="0"
         id="stop4415" /><stop
         style="stop-opacity:1;stop-color:#6243a4"
         offset="0.47253"
         id="stop4417" /><stop
         style="stop-opacity:1;stop-color:#6243a4"
         offset="0.47253"
         id="stop4419" /><stop
         style="stop-opacity:1;stop-color:#ed1443"
         offset="0.74725"
         id="stop4421" /><stop
         style="stop-opacity:1;stop-color:#ed1443"
         offset="1"
         id="stop4423" /></linearGradient></defs><sodipodi:namedview
     pagecolor="#ffffff"
     bordercolor="#666666"
     borderopacity="1"
     objecttolerance="10"
     gridtolerance="10"
     guidetolerance="10"
     inkscape:pageopacity="0"
     inkscape:pageshadow="2"
     inkscape:window-width="1062"
     inkscape:window-height="1033"
     id="namedview2987"
     showgrid="false"
     fit-margin-left="0.5"
     fit-margin-bottom="0.5"
     fit-margin-top="0.5"
     fit-margin-right="0.5"
     inkscape:zoom="0.36612233"
     inkscape:cx="579.52488"
     inkscape:cy="-170.7208"
     inkscape:window-x="853"
     inkscape:window-y="-13"
     inkscape:window-maximized="0"
     inkscape:current-layer="g3668" /><g
     id="g2993"
     inkscape:groupmode="layer"
     inkscape:label="np_annrev99"
     transform="matrix(0,-1.25,-1.25,0,447.83798,168.7156)"><g
       id="g3668"
       transform="matrix(4.78412,0,0,4.6434304,-393.64528,-239.70772)"><g
         id="g4609"
         transform="matrix(0,-2.0427765,1.9827034,0,80.90405,128.69324)"><path
           inkscape:connector-curvature="0"
           d="m 0,0 c 0,8.219 6.663,14.882 14.882,14.882 6.068,0 48.424,0 54.492,0 8.219,0 14.881,-6.663 14.881,-14.882 0,-8.219 -6.662,-14.882 -14.881,-14.882 -6.068,0 -48.424,0 -54.492,0 C 6.663,-14.882 0,-8.219 0,0"
           style="fill:#ed1443;fill-opacity:1;fill-rule:nonzero;stroke:none"
           id="path4611" /></g><g
         id="g4613"
         transform="matrix(0,-2.0427765,1.9827034,0,107.51986,98.292622)"><path
           inkscape:connector-curvature="0"
           d="m 0,0 54.492,0 c 7.414,0 13.423,-6.01 13.423,-13.424 0,-7.413 -6.009,-13.423 -13.423,-13.423 l -54.492,0 c -7.414,0 -13.424,6.01 -13.424,13.423 C -13.424,-6.01 -7.414,0 0,0"
           style="fill:#ffffff;fill-opacity:1;fill-rule:nonzero;stroke:none"
           id="path4615" /></g><g
         id="g4617"
         transform="matrix(0,-2.0427765,1.9827034,0,75.189905,90.924387)"><path
           inkscape:connector-curvature="0"
           d="m 0,0 c -0.769,0.764 -0.694,1.371 -0.694,3.125 l 0.002,0.625 c 0,0.461 -0.166,0.877 -0.395,1.123 -0.253,0.273 -0.616,0.424 -1.159,0.424 l -3.699,0 C -6.387,5.297 -6.833,5.146 -7.086,4.873 -7.315,4.627 -7.489,4.236 -7.489,3.75 l 0,-3.66 c 0,0 0,-0.738 -0.747,-0.738 -0.738,0 -0.738,0.736 -0.738,0.736 l 0,3.662 c 0,0.809 0.064,1.499 0.738,2.226 0.699,0.753 1.524,0.794 2.291,0.794 l 3.699,0 c 0.647,0 1.633,-0.078 2.332,-0.831 C 0.76,5.212 0.788,4.767 0.788,3.75 L 0.799,2.259 C 0.799,1.635 0.808,1.338 1.028,1.103 1.357,0.751 1.942,0.816 2.098,0.816 l 0,-1.458 C 1.905,-0.642 0.732,-0.727 0,0"
           style="fill:#33b540;fill-opacity:1;fill-rule:nonzero;stroke:none"
           id="path4619" /></g><g
         id="g4621"
         transform="matrix(0,-2.0427765,1.9827034,0,69.138693,83.596941)"><path
           inkscape:connector-curvature="0"
           d="M 0,0 C 0,0 0,-0.757 -0.743,-0.77 -1.398,-0.781 -1.484,0 -1.484,0 l -0.005,2.407 1.493,0 L 0,0"
           style="fill:#ed1443;fill-opacity:1;fill-rule:nonzero;stroke:none"
           id="path4623" /></g><g
         id="g4625"
         transform="matrix(0,-2.0427765,1.9827034,0,76.811734,72.682366)"><path
           inkscape:connector-curvature="0"
           d="m 0,0 c 0.607,0 0.947,0.156 1.2,0.429 0.229,0.246 0.366,0.627 0.366,1.128 l 0,1.376 C 1.566,3.462 1.423,3.835 1.194,4.069 0.941,4.342 0.521,4.479 0,4.479 l -3.794,0 C -4.21,4.479 -4.727,4.375 -4.979,4.102 -5.208,3.868 -5.342,3.393 -5.325,2.933 L -5.342,0 -6.831,0 -6.827,2.933 c 0,0.827 0.158,1.548 0.748,2.185 0.697,0.753 1.696,0.834 2.285,0.834 l 3.794,0 c 0.872,0 1.625,-0.125 2.323,-0.879 0.59,-0.636 0.728,-0.985 0.728,-2.14 l 0,-1.376 C 3.051,0.608 3.009,0.085 2.334,-0.643 1.636,-1.396 0.872,-1.466 0,-1.466 L -5.337,-1.463 -5.337,0 0,0"
           style="fill:#ed1443;fill-opacity:1;fill-rule:nonzero;stroke:none"
           id="path4627" /></g><g
         id="g4629"
         transform="matrix(0,-2.0427765,1.9827034,0,79.898825,44.628932)"><path
           inkscape:connector-curvature="0"
           d="m 0,0 c 0,-0.879 -0.07,-1.577 -0.744,-2.235 -0.699,-0.694 -1.417,-0.787 -2.324,-0.787 l -3.667,0 c -0.647,0 -1.529,0.115 -2.248,0.787 C -9.682,-1.583 -9.769,-0.69 -9.769,0 l 0,1.376 c 0,0.914 0.195,1.66 0.786,2.246 0.698,0.694 1.601,0.774 2.248,0.774 l 3.667,0 c 0.959,0 1.637,-0.08 2.324,-0.774 C -0.154,3.036 0,2.445 0,1.376 L 0,0 z m -1.479,0 0,1.376 c 0,0.564 -0.177,0.927 -0.405,1.154 -0.253,0.252 -0.624,0.393 -1.184,0.393 l -3.667,0 C -7.139,2.923 -7.585,2.782 -7.838,2.53 -8.067,2.303 -8.289,1.837 -8.289,1.376 l 0,-1.376 c 0,-0.517 0.222,-0.922 0.451,-1.138 0.253,-0.251 0.456,-0.419 1.103,-0.419 l 3.667,0 c 0.56,0 0.936,0.173 1.189,0.424 0.229,0.216 0.4,0.581 0.4,1.133"
           style="fill:#ed1443;fill-opacity:1;fill-rule:nonzero;stroke:none"
           id="path4631" /></g><g
         id="g4633"
         transform="matrix(0,-2.0427765,1.9827034,0,82.664689,7.6444351)"><path
           inkscape:connector-curvature="0"
           d="M 0,0 3.456,0 C 4.287,0 4.639,0.115 4.831,0.307 4.94,0.414 5.023,0.648 5.023,0.815 5.023,0.982 4.945,1.199 4.836,1.308 4.644,1.499 4.287,1.546 3.456,1.546 l -3.685,0 c -0.502,0 -0.893,-0.149 -1.146,-0.4 C -1.604,0.919 -1.794,0.546 -1.794,0 l 0,-1.377 c 0,-0.603 0.196,-0.912 0.424,-1.14 0.253,-0.251 0.639,-0.416 1.141,-0.416 l 5.769,0 c 0,0 0.716,0 0.716,-0.728 0,-0.738 -0.716,-0.738 -0.716,-0.738 l -5.769,0 c -0.629,0 -1.594,0.103 -2.28,0.786 -0.675,0.67 -0.753,1.512 -0.753,2.236 l 0,1.377 c 0,0.948 0.162,1.652 0.753,2.238 0.59,0.586 1.293,0.781 2.28,0.781 l 3.685,0 c 1.06,0 1.797,-0.06 2.423,-0.683 C 6.265,1.954 6.494,1.396 6.494,0.81 6.494,0.247 6.289,-0.31 5.879,-0.717 5.193,-1.399 4.299,-1.394 3.396,-1.394 L 0,-1.377 c 0,0 -0.751,0 -0.751,0.712 C -0.751,0 0,0 0,0"
           style="fill:#ed1443;fill-opacity:1;fill-rule:nonzero;stroke:none"
           id="path4635" /></g><g
         id="g4637"
         transform="matrix(0,-2.0427765,1.9827034,0,87.078193,-9.0532536)"><path
           inkscape:connector-curvature="0"
           d="m 0,0 c 0.699,0.694 1.571,0.774 2.27,0.774 l 4.661,0 c 0,0 0.739,0 0.736,-0.727 C 7.665,-0.699 6.931,-0.699 6.931,-0.699 l -4.592,0 c -0.56,0 -0.944,-0.138 -1.193,-0.393 C 0.862,-1.38 0.699,-1.785 0.699,-2.245 l 0,-3.661 c 0,0 0,-0.738 -0.717,-0.738 -0.763,0 -0.763,0.738 -0.763,0.738 l 0,3.661 c 0,0.81 0.106,1.575 0.781,2.245"
           style="fill:#ed1443;fill-opacity:1;fill-rule:nonzero;stroke:none"
           id="path4639" /></g><g
         id="g4641"
         transform="matrix(0,-2.0427765,1.9827034,0,76.811734,22.39333)"><path
           inkscape:connector-curvature="0"
           d="m 0,0 c 0.578,0 0.908,0.16 1.161,0.412 0.229,0.227 0.41,0.748 0.41,1.145 l 0,3.742 c 0,0 0,0.653 0.746,0.653 0.751,0 0.751,-0.653 0.751,-0.653 l 0,-3.742 C 3.068,0.919 2.975,-0.01 2.301,-0.681 1.602,-1.375 1.096,-1.466 0,-1.466 l -1.613,-0.003 c -0.433,0 -1.203,0.026 -1.587,0.489 -0.067,0.081 -0.12,0.214 -0.18,0.333 -0.06,-0.119 -0.111,-0.229 -0.203,-0.333 -0.405,-0.456 -1.137,-0.489 -1.57,-0.489 l -1.759,0.003 c -0.781,0 -1.577,0.091 -2.275,0.785 -0.675,0.671 -0.754,1.548 -0.754,2.238 l 0,3.742 c 0,0 0,0.653 0.712,0.653 0.785,0 0.785,-0.653 0.785,-0.653 l 0,-3.742 c 0,-0.449 0.167,-0.918 0.396,-1.145 C -7.796,0.16 -7.485,0 -6.912,0 l 1.161,0 c 0.807,0 1.094,0.049 1.347,0.3 0.229,0.227 0.279,0.434 0.279,1.009 l -0.006,0.526 -0.006,3.464 c 0,0 0,0.653 0.763,0.653 0.699,0 0.699,-0.653 0.699,-0.653 L -2.676,1.843 -2.678,1.32 c 0,-0.574 0.055,-0.776 0.284,-1.003 C -2.141,0.066 -1.86,0 -1.053,0 L 0,0"
           style="fill:#ed1443;fill-opacity:1;fill-rule:nonzero;stroke:none"
           id="path4643" /></g></g><g
       id="g3613"><g
         id="g3615"
         clip-path="url(#clipPath3617)"><path
           d="m 895.89,595.276 -24,0 m -30,54 0,-24 m 54,-625 -24,0 m -30,-54 0,24 m -896,625 24,0 m 30,54 0,-24 m -54,-625 24,0 m 30,-54 0,24"
           style="fill:none;stroke:#ffffff;stroke-width:0.5;stroke-linecap:butt;stroke-linejoin:miter;stroke-miterlimit:10;stroke-opacity:1;stroke-dasharray:none"
           id="path3621"
           inkscape:connector-curvature="0" /><path
           d="m 895.89,595.276 -24,0 m -30,54 0,-24 m 54,-625 -24,0 m -30,-54 0,24 m -896,625 24,0 m 30,54 0,-24 m -54,-625 24,0 m 30,-54 0,24"
           style="fill:none;stroke:#000000;stroke-width:0.25;stroke-linecap:butt;stroke-linejoin:miter;stroke-miterlimit:10;stroke-opacity:1;stroke-dasharray:none"
           id="path3623"
           inkscape:connector-curvature="0" /><path
           d="m 883.89,321.776 0,-48 m -926,48 0,-48 m 487,363.5 -48,0 m 48,-679 -48,0 m 499,339.5 -24,0 m -902,0 -24,0 m 475,351.5 0,-24 m 0,-655 0,-24 m 463,351.5 0,-6 c -3.314,0 -6,2.686 -6,6 0,3.313 2.686,6 6,6 3.314,0 6,-2.687 6,-6 0,-3.314 -2.686,-6 -6,-6 m -926,6 0,-6 c -3.314,0 -6,2.686 -6,6 0,3.313 2.686,6 6,6 3.314,0 6,-2.687 6,-6 0,-3.314 -2.686,-6 -6,-6 m 463,345.5 0,-6 c -3.314,0 -6,2.686 -6,6 0,3.313 2.686,6 6,6 3.314,0 6,-2.687 6,-6 0,-3.314 -2.686,-6 -6,-6 m 0,-673 0,-6 c -3.314,0 -6,2.686 -6,6 0,3.313 2.686,6 6,6 3.314,0 6,-2.687 6,-6 0,-3.314 -2.686,-6 -6,-6"
           style="fill:none;stroke:#ffffff;stroke-width:0.5;stroke-linecap:butt;stroke-linejoin:miter;stroke-miterlimit:10;stroke-opacity:1;stroke-dasharray:none"
           id="path3625"
           inkscape:connector-curvature="0" /><path
           d="m 883.89,321.776 0,-48 m -926,48 0,-48 m 487,363.5 -48,0 m 48,-679 -48,0 m 499,339.5 -24,0 m -902,0 -24,0 m 475,351.5 0,-24 m 0,-655 0,-24 m 463,351.5 0,-6 c -3.314,0 -6,2.686 -6,6 0,3.313 2.686,6 6,6 3.314,0 6,-2.687 6,-6 0,-3.314 -2.686,-6 -6,-6 m -926,6 0,-6 c -3.314,0 -6,2.686 -6,6 0,3.313 2.686,6 6,6 3.314,0 6,-2.687 6,-6 0,-3.314 -2.686,-6 -6,-6 m 463,345.5 0,-6 c -3.314,0 -6,2.686 -6,6 0,3.313 2.686,6 6,6 3.314,0 6,-2.687 6,-6 0,-3.314 -2.686,-6 -6,-6 m 0,-673 0,-6 c -3.314,0 -6,2.686 -6,6 0,3.313 2.686,6 6,6 3.314,0 6,-2.687 6,-6 0,-3.314 -2.686,-6 -6,-6"
           style="fill:none;stroke:#000000;stroke-width:0.25;stroke-linecap:butt;stroke-linejoin:miter;stroke-miterlimit:10;stroke-opacity:1;stroke-dasharray:none"
           id="path3627"
           inkscape:connector-curvature="0" /></g></g></g></svg>