<svg version="1.2" xmlns="http://www.w3.org/2000/svg" viewBox="0 0 250 188" width="250" height="188"><style>.s0{fill:#e20010}.s1{fill:#0080c6}.s2{fill:#f69f28}.s3{fill:#ffffff}</style><path fill-rule="evenodd" class="s0" d="m0 172.2h250v15h-250z" /><path fill-rule="evenodd" class="s1" d="m0 0h75.1v159.9h-75.1z" /><path fill-rule="evenodd" class="s2" d="m87.4 0h75.2v159.9h-75.2z" /><path fill-rule="evenodd" class="s0" d="m174.9 0h75.1v159.9h-75.1z" /><path fill-rule="evenodd" class="s3" d="m216.7 72.3v61h20.3v14h-40.4v-75z" /><path fill-rule="evenodd" class="s3" d="m149.7 72.4v13.6h-14.9v61.5h-20.2v-61.5h-14.3v-13.6z" /><path fill-rule="evenodd" class="s3" d="m43.6 94.3c0-4.9-0.5-9.1-6.1-9c-5.5 0.2-5.9 1.8-5.9 7.1v35.6c0 5.3 0.6 7.9 6.1 7.9c5.5 0 5.9-3.5 5.9-8.5v-11.4h-6.2v-13.3h25v44.5h-13.5l-1.9-5.4q-2.2 3.5-5.5 5.2c-2.3 1.2-4.9 1.6-7.9 1.7c-23.7 0.8-21.1-11.4-21.1-27v-22c0-17.2-2.1-28.1 24.4-27.5c26.5 0.5 24.9 6.3 25.4 22.1z" /></svg>