<svg width="1377" height="1379" xmlns="http://www.w3.org/2000/svg" xmlns:xlink="http://www.w3.org/1999/xlink" overflow="hidden"><defs><filter id="fx0" x="-10%" y="-10%" width="120%" height="120%" filterUnits="userSpaceOnUse" primitiveUnits="userSpaceOnUse"><feComponentTransfer color-interpolation-filters="sRGB"><feFuncR type="discrete" tableValues="0 0"/><feFuncG type="discrete" tableValues="0 0"/><feFuncB type="discrete" tableValues="0 0"/><feFuncA type="linear" slope="0.4" intercept="0"/></feComponentTransfer><feGaussianBlur stdDeviation="7.63889 7.63889"/></filter><clipPath id="clip1"><rect x="2899" y="91" width="1377" height="1379"/></clipPath><clipPath id="clip2"><path d="M3882.18 823.234 3903.74 823.234C3928.9 823.234 3947.18 828.425 3958.58 838.807 3969.98 849.188 3975.68 865.477 3975.68 887.674 3975.68 912.246 3970.32 929.686 3959.59 939.994 3948.86 950.303 3930.47 955.457 3904.41 955.457L3882.18 955.457ZM3882.18 640.55 3902.4 640.55C3924.89 640.55 3940.62 644.558 3949.6 652.573 3958.57 660.589 3963.05 674.259 3963.05 693.584 3963.05 713.164 3958.17 727.4 3948.41 736.29 3938.65 745.181 3922.54 749.626 3900.07 749.626L3882.18 749.626ZM3656.63 560.834 3656.63 639.214 3685.81 639.214C3700.22 639.214 3708.97 640.644 3712.05 643.505 3715.14 646.366 3716.68 655.704 3716.68 671.518L3716.68 922.13 3716.68 925.474C3716.68 940.128 3715.05 948.676 3711.77 951.12 3708.49 953.564 3700.06 954.786 3686.47 954.786L3656.63 954.786 3656.63 1033.5 3932.47 1033.5C4007.8 1033.5 4061.99 1023.23 4095.03 1002.7 4128.07 982.17 4144.59 948.172 4144.59 900.709 4144.59 868.019 4134.22 841.503 4113.49 821.161 4092.76 800.818 4063.63 787.951 4026.11 782.56 4054.95 777.434 4077.98 765.086 4095.21 745.515 4112.43 725.946 4121.04 702.62 4121.04 675.539 4121.04 635.951 4106.18 606.937 4076.44 588.496 4046.71 570.055 4001.16 560.834 3939.82 560.834ZM3231.61 547.203C3260.57 547.203 3287.73 550.053 3313.11 555.754 3338.48 561.455 3360.96 569.953 3380.55 581.248L3391.69 558.107 3468.77 558.107 3468.77 731.224 3378.98 731.224C3370.95 696.798 3357.1 672.118 3337.43 657.184 3317.77 642.25 3291.22 634.783 3257.78 634.783 3238.86 634.783 3223.57 638.892 3211.91 647.11 3200.25 655.327 3194.42 665.077 3194.42 676.358 3194.42 693.223 3218.78 706.668 3267.5 716.693 3279.54 719.262 3288.41 721.192 3294.12 722.48 3366.15 738.994 3417.08 759.874 3446.9 785.12 3476.72 810.366 3491.63 844.783 3491.63 888.371 3491.63 936.836 3473.3 975.412 3436.65 1004.1 3400 1032.78 3351.03 1047.13 3289.75 1047.13 3261.69 1047.13 3234.89 1044.02 3209.33 1037.8 3183.77 1031.59 3160.22 1022.33 3138.67 1010.02L3123.06 1035.49 3049.39 1035.49 3049.39 850.837 3127.73 850.837C3139.28 888.181 3157.09 916.316 3181.17 935.244 3205.25 954.172 3233.65 963.635 3266.37 963.635 3285.71 963.635 3300.85 959.791 3311.78 952.104 3322.71 944.417 3328.18 934.626 3328.18 922.731 3328.18 904.204 3301.67 887.647 3248.66 873.057 3232.24 868.698 3219.45 865.096 3210.29 862.253 3177.75 852.467 3152.41 844.023 3134.27 836.921 3116.13 829.82 3103.3 823.367 3095.76 817.563 3075.77 802.658 3061.1 786.311 3051.78 768.523 3042.45 750.735 3037.79 730.563 3037.79 708.008 3037.79 659.784 3055.64 620.927 3091.33 591.437 3127.03 561.947 3173.79 547.203 3231.61 547.203ZM3584.36 163.375 3644.26 166.423C3953.14 198.033 4194.17 460.901 4194.17 780.5 4194.17 1100.1 3953.14 1362.97 3644.26 1394.58L3584.36 1397.63ZM3581.64 130.5 3581.64 130.638 3517.82 133.856C3189.61 167.142 2933.5 443.951 2933.5 780.5 2933.5 1117.05 3189.61 1393.86 3517.82 1427.14L3581.64 1430.36 3581.64 1430.5 3583 1430.43 3584.36 1430.5 3584.36 1430.36 3648.18 1427.14C3976.39 1393.86 4232.5 1117.05 4232.5 780.5 4232.5 443.951 3976.39 167.142 3648.18 133.856L3584.36 130.638 3584.36 130.5 3583 130.569ZM2899 91 4276 91 4276 1470 2899 1470Z" fill-rule="evenodd" clip-rule="evenodd"/></clipPath><clipPath id="clip3"><rect x="-7" y="-7" width="1390" height="1394"/></clipPath><clipPath id="clip4"><rect x="0" y="0" width="1377" height="1379"/></clipPath></defs><g clip-path="url(#clip1)" transform="translate(-2899 -91)"><g clip-path="url(#clip2)"><g clip-path="url(#clip3)" filter="url(#fx0)" transform="translate(2899 91)"><g clip-path="url(#clip4)"><path d="M993.748 733.089 993.748 867.956 1016.42 867.956C1043 867.956 1061.77 862.699 1072.71 852.184 1083.65 841.67 1089.12 823.88 1089.12 798.817 1089.12 776.176 1083.3 759.562 1071.67 748.973 1060.04 738.384 1041.4 733.089 1015.74 733.089ZM993.748 546.751 993.748 658.009 1011.99 658.009C1034.91 658.009 1051.35 653.475 1061.3 644.406 1071.26 635.338 1076.24 620.817 1076.24 600.845 1076.24 581.134 1071.66 567.19 1062.51 559.015 1053.36 550.839 1037.31 546.751 1014.38 546.751ZM763.683 465.441 1052.54 465.441C1115.11 465.441 1161.56 474.846 1191.89 493.656 1222.22 512.466 1237.39 542.06 1237.39 582.439 1237.39 610.063 1228.6 633.855 1211.03 653.815 1193.46 673.777 1169.97 686.372 1140.55 691.601 1178.83 697.1 1208.54 710.224 1229.69 730.974 1250.83 751.723 1261.4 778.769 1261.4 812.113 1261.4 860.526 1244.55 895.203 1210.85 916.144 1177.15 937.085 1121.88 947.556 1045.04 947.556L763.683 947.556 763.683 867.271 794.127 867.271C807.987 867.271 816.588 866.025 819.929 863.532 823.27 861.039 824.941 852.32 824.941 837.373L824.941 833.963 824.941 578.339C824.941 562.208 823.366 552.684 820.217 549.766 817.068 546.847 808.145 545.388 793.447 545.388L763.683 545.388ZM330.166 451.537C271.185 451.537 223.49 466.576 187.082 496.656 150.674 526.736 132.47 566.369 132.47 615.558 132.47 638.565 137.226 659.14 146.737 677.283 156.249 695.427 171.204 712.101 191.601 727.304 199.287 733.224 212.381 739.806 230.88 747.049 249.38 754.293 275.228 762.906 308.423 772.888 317.767 775.788 330.81 779.461 347.553 783.908 401.628 798.79 428.666 815.678 428.666 834.575 428.666 846.709 423.09 856.696 411.938 864.537 400.785 872.377 385.348 876.298 365.624 876.298 332.247 876.298 303.278 866.645 278.716 847.339 254.154 828.032 235.986 799.334 224.21 761.244L144.304 761.244 144.304 949.591 219.44 949.591 235.369 923.614C257.344 936.164 281.367 945.609 307.436 951.949 333.506 958.289 360.849 961.459 389.466 961.459 451.975 961.459 501.922 946.829 539.307 917.569 576.693 888.31 595.385 848.963 595.385 799.528 595.385 755.069 580.177 719.963 549.76 694.212 519.343 668.462 467.398 647.164 393.926 630.32 388.103 629.006 379.053 627.038 366.777 624.416 317.078 614.191 292.228 600.478 292.228 583.275 292.228 571.769 298.175 561.824 310.068 553.442 321.962 545.06 337.561 540.869 356.863 540.869 390.965 540.869 418.047 548.485 438.107 563.717 458.168 578.95 472.293 604.124 480.483 639.238L572.065 639.238 572.065 462.659 493.448 462.659 482.087 486.263C462.103 474.742 439.171 466.074 413.292 460.259 387.412 454.444 359.704 451.537 330.166 451.537ZM689.974 60.032 689.974 1318.97 751.073 1315.86C1066.12 1283.62 1311.98 1015.49 1311.98 689.5 1311.98 363.509 1066.12 95.3836 751.073 63.1414ZM687.193 26.5001 688.583 26.5705 689.974 26.5001 689.974 26.6405 755.071 29.9233C1089.84 63.8752 1351.07 346.22 1351.07 689.5 1351.07 1032.78 1089.84 1315.12 755.071 1349.08L689.974 1352.36 689.974 1352.5 688.583 1352.43 687.193 1352.5 687.193 1352.36 622.096 1349.08C287.33 1315.12 26.0935 1032.78 26.0935 689.5 26.0935 346.22 287.33 63.8752 622.096 29.9233L687.193 26.6405Z" stroke="#7030A0" stroke-width="5" stroke-miterlimit="8" fill="#7030A0" fill-rule="evenodd"/></g></g></g><path d="M3882.18 823.234 3882.18 955.457 3904.41 955.457C3930.47 955.457 3948.86 950.303 3959.59 939.994 3970.32 929.686 3975.68 912.246 3975.68 887.674 3975.68 865.477 3969.98 849.188 3958.58 838.807 3947.18 828.425 3928.9 823.234 3903.74 823.234ZM3882.18 640.55 3882.18 749.626 3900.07 749.626C3922.54 749.626 3938.65 745.181 3948.41 736.29 3958.17 727.4 3963.05 713.164 3963.05 693.584 3963.05 674.259 3958.57 660.589 3949.6 652.573 3940.62 644.558 3924.89 640.55 3902.4 640.55ZM3656.63 560.834 3939.82 560.834C4001.16 560.834 4046.71 570.055 4076.44 588.496 4106.18 606.937 4121.04 635.951 4121.04 675.539 4121.04 702.62 4112.43 725.946 4095.21 745.515 4077.98 765.086 4054.95 777.434 4026.11 782.56 4063.63 787.951 4092.76 800.818 4113.49 821.161 4134.22 841.503 4144.59 868.019 4144.59 900.709 4144.59 948.172 4128.07 982.17 4095.03 1002.7 4061.99 1023.23 4007.8 1033.5 3932.46 1033.5L3656.63 1033.5 3656.63 954.786 3686.47 954.786C3700.06 954.786 3708.49 953.564 3711.77 951.12 3715.05 948.676 3716.68 940.128 3716.68 925.474L3716.68 922.13 3716.68 671.518C3716.68 655.704 3715.14 646.366 3712.05 643.505 3708.97 640.644 3700.22 639.214 3685.81 639.214L3656.63 639.214ZM3231.61 547.203C3173.79 547.203 3127.03 561.947 3091.33 591.437 3055.64 620.927 3037.79 659.784 3037.79 708.008 3037.79 730.563 3042.45 750.735 3051.78 768.523 3061.1 786.311 3075.77 802.658 3095.76 817.563 3103.3 823.367 3116.13 829.82 3134.27 836.921 3152.41 844.023 3177.75 852.467 3210.29 862.253 3219.45 865.096 3232.24 868.697 3248.66 873.057 3301.67 887.647 3328.18 904.204 3328.18 922.731 3328.18 934.626 3322.71 944.417 3311.78 952.104 3300.84 959.791 3285.71 963.635 3266.37 963.635 3233.65 963.635 3205.25 954.172 3181.17 935.244 3157.09 916.316 3139.28 888.181 3127.73 850.837L3049.39 850.837 3049.39 1035.49 3123.06 1035.49 3138.67 1010.02C3160.22 1022.33 3183.77 1031.59 3209.33 1037.8 3234.89 1044.02 3261.69 1047.13 3289.75 1047.13 3351.03 1047.13 3400 1032.78 3436.65 1004.1 3473.3 975.412 3491.63 936.836 3491.63 888.371 3491.63 844.783 3476.72 810.366 3446.9 785.12 3417.08 759.874 3366.15 738.994 3294.12 722.48 3288.41 721.192 3279.54 719.262 3267.5 716.693 3218.78 706.668 3194.42 693.223 3194.42 676.358 3194.42 665.077 3200.25 655.327 3211.91 647.11 3223.57 638.892 3238.86 634.783 3257.78 634.783 3291.22 634.783 3317.77 642.25 3337.43 657.184 3357.1 672.118 3370.95 696.798 3378.98 731.223L3468.77 731.223 3468.77 558.107 3391.69 558.107 3380.55 581.248C3360.96 569.953 3338.48 561.455 3313.11 555.754 3287.73 550.053 3260.57 547.203 3231.61 547.203ZM3584.36 163.374 3584.36 1397.63 3644.26 1394.58C3953.14 1362.97 4194.17 1100.1 4194.17 780.5 4194.17 460.901 3953.14 198.033 3644.26 166.423ZM3581.64 130.5 3583 130.569 3584.36 130.5 3584.36 130.638 3648.18 133.856C3976.39 167.142 4232.5 443.951 4232.5 780.5 4232.5 1117.05 3976.39 1393.86 3648.18 1427.14L3584.36 1430.36 3584.36 1430.5 3583 1430.43 3581.64 1430.5 3581.64 1430.36 3517.82 1427.14C3189.61 1393.86 2933.5 1117.05 2933.5 780.5 2933.5 443.951 3189.61 167.142 3517.82 133.856L3581.64 130.638Z" stroke="#7030A0" stroke-width="4.58333" stroke-miterlimit="8" fill="#7030A0" fill-rule="evenodd"/></g></svg>