<svg width="650" height="650" xmlns="http://www.w3.org/2000/svg" xmlns:xlink="http://www.w3.org/1999/xlink" overflow="hidden"><defs><clipPath id="clip0"><rect x="61" y="72" width="650" height="650"/></clipPath></defs><g clip-path="url(#clip0)" transform="translate(-61 -72)"><path d="M402.781 675.047 402.781 682.105 405.505 682.105C406.991 682.105 408.126 681.789 408.91 681.156 409.695 680.523 410.087 679.587 410.087 678.349 410.087 677.083 409.695 676.217 408.91 675.749 408.126 675.281 406.991 675.047 405.505 675.047ZM396.218 669.805 406.001 669.805C407.899 669.805 409.647 670.06 411.242 670.569 412.839 671.078 414.118 671.951 415.081 673.19 416.044 674.428 416.526 676.148 416.526 678.349 416.526 680.44 416.044 682.146 415.081 683.467 414.599 684.128 414.039 684.702 413.399 685.19L411.937 686.009 417.929 696.675 410.582 696.675 405.709 687.347 402.781 687.347 402.781 696.675 396.218 696.675ZM397.209 619.931 415.246 619.931 415.246 625.462 403.772 625.421 403.813 630.25 413.513 630.291 413.554 635.781 403.772 635.781 403.813 641.27 415.659 641.312 415.659 646.801 397.25 646.801ZM396.177 571.777 402.905 571.777 407.982 584.448 410.211 590.433 410.376 590.433C410.211 588.975 410.018 587.345 409.798 585.542 409.578 583.74 409.468 582.027 409.468 580.404L409.468 571.777 415.742 571.777 415.742 598.647 409.014 598.647 403.937 585.934 401.708 579.991 401.543 579.991C401.708 581.504 401.901 583.148 402.121 584.923 402.341 586.698 402.451 588.383 402.451 589.979L402.451 598.647 396.177 598.647ZM407.858 521.408C409.674 521.408 411.236 521.759 412.543 522.46 413.85 523.162 414.93 523.967 415.783 524.875L412.151 528.92C411.6 528.342 410.995 527.895 410.334 527.578 409.674 527.262 408.849 527.104 407.858 527.104 406.785 527.104 405.808 527.427 404.927 528.074 404.047 528.72 403.352 529.656 402.843 530.88 402.334 532.105 402.079 533.57 402.079 535.276 402.079 537.037 402.306 538.537 402.76 539.775 403.215 541.013 403.896 541.956 404.804 542.603 405.712 543.249 406.826 543.573 408.147 543.573 408.56 543.573 408.972 543.517 409.385 543.407 409.798 543.297 410.128 543.146 410.376 542.953L410.376 538.743 406.744 538.743 406.744 533.377 416.237 533.377 416.237 546.008C415.356 546.833 414.152 547.583 412.625 548.257 411.098 548.931 409.481 549.268 407.775 549.268 405.492 549.268 403.407 548.759 401.522 547.741 399.637 546.723 398.131 545.189 397.003 543.139 395.874 541.089 395.31 538.551 395.31 535.524 395.31 532.497 395.874 529.931 397.003 527.826 398.131 525.721 399.644 524.125 401.543 523.038 403.442 521.951 405.547 521.408 407.858 521.408ZM396.466 472.029 415.411 472.029 415.453 477.56 409.22 477.519 409.261 493.368 415.411 493.409 415.453 498.899 396.507 498.899 396.466 493.368 402.699 493.409 402.657 477.56 396.507 477.519ZM406.62 421.66C408.216 421.66 409.805 421.956 411.387 422.547 412.969 423.139 414.393 424.026 415.659 425.209L412.357 429.378C411.394 428.718 410.458 428.216 409.55 427.872 408.642 427.528 407.542 427.356 406.248 427.356 405.368 427.356 404.645 427.528 404.081 427.872 403.517 428.216 403.235 428.745 403.235 429.461 403.235 429.929 403.407 430.321 403.751 430.637 404.095 430.953 404.59 431.243 405.237 431.504 405.884 431.765 406.647 432.061 407.528 432.391L410.706 433.712C411.917 434.152 412.942 434.71 413.781 435.384 414.62 436.058 415.267 436.856 415.721 437.778 416.175 438.7 416.402 439.793 416.402 441.059 416.402 442.572 415.996 443.969 415.184 445.248 414.373 446.528 413.182 447.56 411.614 448.344 410.046 449.128 408.119 449.52 405.836 449.52 404.047 449.52 402.251 449.197 400.449 448.55 398.647 447.904 397.003 446.934 395.517 445.641L399.273 441.142C400.318 441.94 401.44 442.586 402.637 443.082 403.834 443.577 405.051 443.825 406.289 443.825 407.473 443.825 408.333 443.639 408.869 443.267 409.406 442.896 409.674 442.435 409.674 441.885 409.674 441.307 409.516 440.846 409.199 440.502 408.883 440.158 408.422 439.855 407.817 439.594 407.211 439.332 406.496 439.037 405.67 438.706L402.245 437.262C401.226 436.877 400.284 436.354 399.417 435.693 398.55 435.033 397.856 434.214 397.333 433.238 396.81 432.261 396.549 431.126 396.549 429.832 396.549 428.319 396.968 426.95 397.807 425.725 398.647 424.501 399.823 423.517 401.336 422.774 402.85 422.031 404.611 421.66 406.62 421.66ZM535.706 418.367 535.706 484.478 546.828 484.478C559.869 484.478 569.073 481.901 574.44 476.747 579.807 471.593 582.49 462.873 582.49 450.587 582.49 439.488 579.638 431.344 573.933 426.153 568.228 420.963 559.082 418.367 546.495 418.367ZM397.209 372.281 415.246 372.281 415.246 377.812 403.772 377.771 403.813 382.6 413.513 382.641 413.554 388.131 403.772 388.131 403.813 393.62 415.659 393.662 415.659 399.151 397.25 399.151ZM402.946 329.41 402.946 345.714 403.565 345.714C404.859 345.714 406.001 345.459 406.991 344.95 407.982 344.441 408.759 343.595 409.323 342.412 409.887 341.229 410.169 339.578 410.169 337.459 410.169 335.34 409.887 333.703 409.323 332.547 408.759 331.391 407.982 330.58 406.991 330.112 406.001 329.644 404.859 329.41 403.565 329.41ZM535.706 327.025 535.706 381.563 544.657 381.563C555.899 381.563 563.962 379.34 568.847 374.895 573.731 370.45 576.173 363.332 576.173 353.542 576.173 343.879 573.928 337.044 569.439 333.037 564.95 329.029 557.078 327.025 545.825 327.025ZM396.342 324.127 403.937 324.127C406.523 324.127 408.787 324.588 410.727 325.51 412.666 326.432 414.187 327.869 415.287 329.823 416.388 331.777 416.938 334.322 416.938 337.459 416.938 340.568 416.395 343.127 415.308 345.136 414.221 347.145 412.728 348.624 410.83 349.573 408.931 350.522 406.757 350.997 404.308 350.997L396.342 350.997ZM422.841 287.167 564.546 287.167C595.243 287.167 618.031 291.777 632.91 300.998 647.789 310.219 655.229 324.725 655.229 344.519 655.229 358.06 650.919 369.723 642.3 379.507 633.681 389.293 622.156 395.467 607.724 398.03 626.502 400.725 641.078 407.159 651.451 417.33 661.824 427.501 667.01 440.759 667.01 457.104 667.01 480.836 658.744 497.835 642.211 508.1 625.678 518.365 598.563 523.498 560.867 523.498L422.841 523.498 422.841 484.143 437.777 484.143C444.576 484.143 448.795 483.532 450.435 482.31 452.074 481.088 452.893 476.814 452.893 469.487L452.893 467.815 452.893 342.509C452.893 334.602 452.121 329.933 450.576 328.503 449.031 327.072 444.654 326.357 437.443 326.357L422.841 326.357ZM210.17 280.351C181.235 280.351 157.837 287.723 139.976 302.469 122.116 317.213 113.185 336.642 113.185 360.754 113.185 372.032 115.518 382.117 120.185 391.011 124.851 399.905 132.187 408.079 142.194 415.531 145.964 418.433 152.387 421.66 161.463 425.21 170.538 428.761 183.218 432.983 199.503 437.877 204.087 439.298 210.486 441.099 218.699 443.278 245.227 450.573 258.491 458.852 258.491 468.115 258.491 474.063 255.756 478.959 250.285 482.802 244.814 486.646 237.24 488.567 227.565 488.567 211.191 488.567 196.979 483.836 184.93 474.372 172.881 464.908 163.967 450.84 158.191 432.168L118.991 432.168 118.991 524.496 155.851 524.496 163.665 511.762C174.445 517.914 186.23 522.543 199.019 525.651 211.808 528.759 225.222 530.313 239.261 530.313 269.926 530.313 294.429 523.142 312.769 508.799 331.109 494.456 340.279 475.168 340.279 450.935 340.279 429.141 332.818 411.933 317.897 399.31 302.975 386.687 277.492 376.247 241.449 367.99 238.592 367.346 234.153 366.381 228.13 365.096 203.749 360.084 191.558 353.361 191.558 344.929 191.558 339.288 194.476 334.413 200.31 330.305 206.145 326.196 213.797 324.141 223.267 324.141 239.996 324.141 253.282 327.875 263.123 335.342 272.964 342.809 279.893 355.149 283.911 372.362L328.839 372.362 328.839 285.803 290.272 285.803 284.698 297.374C274.894 291.726 263.645 287.477 250.949 284.627 238.253 281.776 224.66 280.351 210.17 280.351ZM353.239 262.411C354.198 262.411 355.026 262.751 355.723 263.432 356.419 264.113 356.961 265.135 357.348 266.497 357.735 267.859 357.928 269.546 357.928 271.558 357.928 273.632 357.735 275.366 357.348 276.759 356.961 278.152 356.419 279.197 355.723 279.893 355.026 280.59 354.198 280.938 353.239 280.938 352.279 280.938 351.451 280.59 350.754 279.893 350.058 279.197 349.516 278.152 349.129 276.759 348.742 275.366 348.549 273.632 348.549 271.558 348.549 269.546 348.742 267.859 349.129 266.497 349.516 265.135 350.058 264.113 350.754 263.432 351.451 262.751 352.279 262.411 353.239 262.411ZM353.239 256.003C350.824 256.003 348.696 256.591 346.854 257.767 345.012 258.943 343.572 260.685 342.535 262.991 341.498 265.297 340.98 268.153 340.98 271.558 340.98 275.025 341.498 277.927 342.535 280.265 343.572 282.602 345.012 284.366 346.854 285.558 348.696 286.75 350.824 287.346 353.239 287.346 355.653 287.346 357.781 286.75 359.623 285.558 361.465 284.366 362.905 282.602 363.942 280.265 364.979 277.927 365.497 275.025 365.497 271.558 365.497 268.153 364.979 265.297 363.942 262.991 362.905 260.685 361.465 258.943 359.623 257.767 357.781 256.591 355.653 256.003 353.239 256.003ZM343.905 201.527 343.952 231.755 351.335 231.755 351.335 220.333 362.432 220.333 362.432 214.157 351.335 214.11 351.335 207.702 364.336 207.749 364.29 201.527ZM342.234 146.493 342.234 176.722 349.292 176.722 349.292 166.971C349.292 165.175 349.168 163.279 348.92 161.283 348.673 159.286 348.456 157.436 348.27 155.734L348.456 155.734 350.963 162.42 356.675 176.722 364.243 176.722 364.243 146.493 357.185 146.493 357.185 156.198C357.185 158.024 357.309 159.952 357.557 161.979 357.805 164.007 358.021 165.841 358.207 167.482L358.021 167.482 355.514 160.748 349.802 146.493ZM342.559 91.4599 342.605 97.6357 349.524 97.6821 349.57 115.513 342.559 115.466 342.605 121.689 363.918 121.689 363.872 115.513 356.953 115.466 356.907 97.6357 363.918 97.6821 363.872 91.4599ZM386.682 88.4371 386.682 705.563 416.656 704.039C571.211 688.234 691.819 556.799 691.819 397 691.819 237.2 571.211 105.766 416.656 89.9613ZM385.318 71.9998 386 72.0343 386.682 71.9998 386.682 72.0686 418.617 73.6779C582.844 90.321 711 228.725 711 397 711 565.274 582.844 703.679 418.617 720.322L386.682 721.931 386.682 722 386 721.966 385.318 722 385.318 721.931 353.383 720.322C189.156 703.679 60.9998 565.274 60.9998 397 60.9998 228.725 189.156 90.321 353.383 73.6779L385.318 72.0686Z" fill="#7030A0" fill-rule="evenodd"/></g></svg>